<svg xmlns="http://www.w3.org/2000/svg" viewBox="0 0 455.55 470.14"><defs><style>.cls-1{fill:#f5f5f5;}.cls-2{fill:#fafafa;}.cls-3{fill:#ebebeb;}.cls-4{fill:#e0e0e0;}.cls-5{fill:#263238;}.cls-6{fill:#ff725e;}.cls-7{fill:#455a64;}.cls-10,.cls-8{fill:#fff;}.cls-9{opacity:0.3;}.cls-10{opacity:0.6;isolation:isolate;}</style></defs><title>Asset 1</title><g id="Layer_2" data-name="Layer 2"><g id="Layer_1-2" data-name="Layer 1"><g id="freepik--background-complete--inject-2"><path class="cls-1" d="M446.29,181.35c.74-5.44-6.93-9.91-12.69-10.38-2.75-.22-5.61.2-8.21-.71-5.65-2-7.9-9.25-13.41-11.58-4.11-1.73-8.85-.19-12.84,1.82s-7.94,4.54-12.4,4.82c-3.88.25-8.09-1.19-11.48.71-2.53,1.41-3.85,4.32-6.18,6s-5.26,2-8.09,2.19-5.76.19-8.33,1.37-4.71,3.9-4.17,6.68Z"/><path class="cls-2" d="M195.35,92.11c.59-4.28-5.45-7.8-10-8.17-2.16-.17-4.41.16-6.46-.55-4.44-1.55-6.21-7.29-10.54-9.12-3.24-1.36-7-.15-10.11,1.43s-6.24,3.57-9.75,3.8c-3,.19-6.37-.94-9,.55-2,1.11-3,3.41-4.86,4.76s-4.14,1.6-6.36,1.72-4.53.15-6.56,1.07-3.7,3.08-3.28,5.26Z"/><path class="cls-1" d="M148.94,63.75c1-7.15-9.12-13-16.71-13.65-3.61-.29-7.37.26-10.8-.94C114,46.57,111,37,103.78,33.92c-5.42-2.29-11.66-.25-16.91,2.39s-10.45,6-16.32,6.38c-5.1.33-10.65-1.57-15.11.93-3.33,1.86-5.08,5.69-8.14,8s-6.92,2.69-10.64,2.89-7.58.24-11,1.79-6.19,5.14-5.49,8.8Z"/><path class="cls-3" d="M69.43,328.43s-7.5-2.43-11,14.87-4,26.86-4,26.86-1.16,3.75-3.92,2.28S43.13,365.9,39.72,368s-3.62,6.82-1.14,12.92,7.44,19.68,7.88,20.91.23,3.21-1.81,2.51-14.93-8.94-18.48-2.58,6.17,22.22,7.2,24,.88,2.66.11,3.38-4.84-2.46-8.61-4.65-8.51-4.08-10.25-.24,1,17,19.16,34.6l8.94,7.6,11.12-3.75c23.4-9.54,30.88-20.71,30.7-24.92s-5.28-4.24-9.6-3.61-9.28,2-9.72,1.09-.24-1.85,1.37-3.1,16.55-12.33,15.64-19.55-16-4.39-18.11-4.51-1.59-2-.73-3,10.53-11.77,15.16-16.5,6.25-9.07,3.77-12.41-8.56-.24-11.67.09-2.82-3.58-2.82-3.58,3.1-9.05,6.31-26.42-4.86-17.89-4.86-17.89"/><path class="cls-4" d="M41.43,469c2.41-12.74,7.06-35.32,11-54.73s7.4-37,9.87-49.69c1.23-6.36,2.22-11.51,2.91-15.08.34-1.77.61-3.15.79-4.1.09-.46.17-.81.22-1.07s.08-.36.08-.36v.37a9,9,0,0,1-.18,1.07c-.17,1-.41,2.34-.72,4.11-.64,3.57-1.59,8.73-2.8,15.11-2.4,12.74-5.87,30.32-9.76,49.72s-8.59,42-11,54.7"/><path class="cls-4" d="M45.86,375.33a3.8,3.8,0,0,1,.5.69c.3.46.72,1.12,1.22,2,1,1.66,2.36,4,3.79,6.6L55,391.3l1.12,2a4.15,4.15,0,0,1,.38.76,4.4,4.4,0,0,1-.51-.69c-.3-.45-.71-1.12-1.21-2-1-1.68-2.31-4-3.75-6.63s-2.7-4.88-3.69-6.65l-1.13-2A3.56,3.56,0,0,1,45.86,375.33Z"/><path class="cls-4" d="M57.61,394c0-.09,4.64-3.06,10.49-6.65s10.62-6.43,10.67-6.34-4.64,3.06-10.48,6.65S57.66,394,57.61,394Z"/><path class="cls-4" d="M50.29,423.48a3.94,3.94,0,0,1,.82-.27l2.27-.63c1.92-.52,4.56-1.26,7.45-2.19s5.48-1.83,7.34-2.52l2.22-.8a4.6,4.6,0,0,1,.82-.26,3.71,3.71,0,0,1-.77.39c-.51.23-1.25.55-2.17.92-1.85.74-4.43,1.7-7.33,2.62s-5.56,1.63-7.49,2.09c-1,.23-1.76.41-2.3.51A5,5,0,0,1,50.29,423.48Z"/><path class="cls-4" d="M36,409a2.77,2.77,0,0,1,.62.51L38.16,411c1.33,1.27,3.16,3,5.15,5s3.79,3.76,5.08,5.08l1.51,1.56a3.11,3.11,0,0,1,.52.62,4.31,4.31,0,0,1-.62-.51l-1.59-1.49c-1.33-1.27-3.16-3-5.15-5s-3.79-3.77-5.08-5.08l-1.51-1.57A3.3,3.3,0,0,1,36,409Z"/><path class="cls-4" d="M26.18,434.22a6.18,6.18,0,0,1,.78.66l2.05,1.9c1.71,1.61,4.07,3.86,6.65,6.36s4.91,4.78,6.58,6.44l2,2a5,5,0,0,1,.69.76,4.87,4.87,0,0,1-.78-.66c-.54-.49-1.22-1.13-2-1.9-1.72-1.61-4.07-3.86-6.65-6.36s-4.91-4.77-6.58-6.43l-2-2A4.58,4.58,0,0,1,26.18,434.22Z"/><path class="cls-4" d="M44.55,451.76a9.25,9.25,0,0,1,1-.37l2.85-.89c2.41-.76,5.73-1.81,9.36-3.08s6.89-2.5,9.24-3.41l2.79-1.07a5.16,5.16,0,0,1,1-.35,6.13,6.13,0,0,1-1,.48c-.64.29-1.58.7-2.74,1.18-2.33,1-5.58,2.25-9.22,3.51s-7,2.29-9.41,3c-1.21.34-2.2.61-2.88.78A6.73,6.73,0,0,1,44.55,451.76Z"/><path class="cls-3" d="M276.35,398.69a15.13,15.13,0,0,1,10.91,4.62,26.59,26.59,0,0,1,6.14,10.41c2.58,7.42,2,16.45.37,24.14-8.41-2.33-14.1-10.71-16.72-15.14-4.14-7-7.37-22.17-.7-24"/><path class="cls-3" d="M306.23,446.23a13,13,0,0,1-1.54-12.88,17.13,17.13,0,0,1,9.7-9c2-.76,4.26-1.19,6.08-.15a5.52,5.52,0,0,1,2.5,5,11.36,11.36,0,0,1-2,5.47c-3.6,5.68-8.12,10.53-14.77,11.57"/><path class="cls-4" d="M307,465.88a29.73,29.73,0,0,1-1.93-10.66,53.22,53.22,0,0,1,.45-6.91,26.14,26.14,0,0,1,4.63-11.68,19.84,19.84,0,0,1,2.62-2.8c.7-.56,1.12-.84,1.15-.79a31.27,31.27,0,0,0-3.26,4,27.62,27.62,0,0,0-4.27,11.44,64.61,64.61,0,0,0-.51,6.8,27,27,0,0,0,.32,5.53A37.66,37.66,0,0,1,307,465.88Z"/><path class="cls-4" d="M279.83,410.07a13.84,13.84,0,0,1,1.37,2.24c.83,1.48,2,3.62,3.42,6.29,2.84,5.33,6.69,12.74,10.74,21s7.5,15.9,9.88,21.45c1.19,2.78,2.13,5,2.75,6.61a16.6,16.6,0,0,1,.88,2.48,14.76,14.76,0,0,1-1.2-2.34c-.77-1.68-1.78-3.86-3-6.49-2.52-5.49-6.06-13-10.1-21.33s-7.75-15.58-10.5-21.13c-1.29-2.6-2.36-4.75-3.17-6.41A15.77,15.77,0,0,1,279.83,410.07Z"/><path class="cls-3" d="M298.55,453.22a30.27,30.27,0,0,0-26-9.35c-2.41.33-5.18,1.34-5.79,3.71s1.36,4.59,3.35,6a25.8,25.8,0,0,0,28.63.27"/><path class="cls-4" d="M277.75,448.82a4.57,4.57,0,0,1,1.38-.15c.88-.05,2.17,0,3.76,0A34,34,0,0,1,295,451.29a21.48,21.48,0,0,1,5.75,3.81,20.87,20.87,0,0,1,5.14,7.81,3.92,3.92,0,0,1,.39,1.33c-.16.07-.85-1.78-2.55-4.4a22.16,22.16,0,0,0-3.53-4.14,22.41,22.41,0,0,0-5.56-3.61,38.28,38.28,0,0,0-11.83-2.8A45.85,45.85,0,0,1,277.75,448.82Z"/><polygon class="cls-4" points="52.05 188.99 39.76 163.66 27.42 171.53 8.48 155.25 25.65 180.3 38.15 172.27 52.05 188.99"/><polygon class="cls-4" points="48.37 195.94 31.26 187.59 27.98 196.93 11.1 196.17 30.7 202.34 34 192.84 48.37 195.94"/></g><g id="freepik--Plant--inject-2"><path class="cls-5" d="M380,442.56a2.71,2.71,0,0,1-.63-.13c-.41-.1-1-.3-1.78-.47a42.21,42.21,0,0,0-16.64-.65A41,41,0,0,0,330.17,466c-.33.73-.51,1.32-.68,1.71a4.41,4.41,0,0,1-.26.59,2.69,2.69,0,0,1,.16-.62c.13-.4.29-1,.59-1.75a36.53,36.53,0,0,1,3-6.12,39.84,39.84,0,0,1,38-19.26,36.33,36.33,0,0,1,6.69,1.24c.78.19,1.36.43,1.76.56A3.88,3.88,0,0,1,380,442.56Z"/><path class="cls-6" d="M376.6,441a14.88,14.88,0,0,0-2.79,15.07c.39,1,1.1,2.08,2.17,2.09s1.85-1.21,2.22-2.29A17.49,17.49,0,0,0,377,442a20,20,0,0,0,7.32,9c1.24.83,3,1.51,4.16.62s1.05-2.64.57-4a11.8,11.8,0,0,0-11.75-7.57,11.06,11.06,0,0,0,10.86-6.4c.68-1.59.75-3.84-.78-4.64a3.62,3.62,0,0,0-3,.23,14.09,14.09,0,0,0-7.87,8.8,12.41,12.41,0,0,0-2.3-13.39c-1.07-1.11-2.6-2.06-4.08-1.63-1.86.54-2.48,2.89-2.43,4.83a16.25,16.25,0,0,0,6.52,12.42,9.2,9.2,0,0,0-8.55-.74c-1.8.77-3.48,2.75-2.68,4.53s3.14,1.86,5,1.52a23.1,23.1,0,0,0,9.28-4"/><path class="cls-7" d="M342.18,448.9a30.73,30.73,0,0,0,23.24,11.46c-.15-2-1.7-3.5-3.26-4.69a31.73,31.73,0,0,0-19.61-6.44"/><path class="cls-5" d="M375.67,451.61a47.21,47.21,0,0,0,.95-5.79,49.88,49.88,0,0,0-.28-5.86A15.53,15.53,0,0,1,375.67,451.61Z"/><path class="cls-5" d="M383.16,447.43a23.9,23.9,0,0,0-2.91-3.74c-1.92-1.81-3.89-2.79-3.8-2.94a10.17,10.17,0,0,1,4.16,2.56A7.9,7.9,0,0,1,383.16,447.43Z"/><path class="cls-5" d="M382.79,434.33a8.54,8.54,0,0,1-2.35,4,7.3,7.3,0,0,1-4,2.43,21.21,21.21,0,0,0,3.61-2.79C381,436.8,381.94,435.59,382.79,434.33Z"/><path class="cls-2" d="M376.55,438.51a1.81,1.81,0,0,1,1.95,1.66,1.87,1.87,0,0,1-.45,1.34,5.1,5.1,0,0,0-1.5-.82,7.24,7.24,0,0,0,0-2.18"/><path class="cls-5" d="M371.23,427.9a6.2,6.2,0,0,1,1.42,1.56,18.75,18.75,0,0,1,3.55,9.43,5.7,5.7,0,0,1,0,2.1,35.35,35.35,0,0,0-1.57-6.88A37.07,37.07,0,0,0,371.23,427.9Z"/><path class="cls-6" d="M16.89,430.51a8,8,0,0,1,5.73,2.5,14.18,14.18,0,0,1,3.17,5.53c1.31,3.93.95,8.69,0,12.74-4.42-1.29-7.38-5.74-8.73-8.09-2.14-3.72-3.76-11.74-.22-12.68"/><path class="cls-6" d="M32.36,455.74a6.84,6.84,0,0,1-.73-6.8,9,9,0,0,1,5.17-4.7,3.83,3.83,0,0,1,3.21,0,2.89,2.89,0,0,1,1.28,2.65,5.9,5.9,0,0,1-1.07,2.8c-1.93,3-4.35,5.5-7.86,6"/><path class="cls-5" d="M33.65,469.07a5.91,5.91,0,0,1-.24-.82c-.15-.58-.35-1.34-.58-2.25a24,24,0,0,1-1-7.62,14.77,14.77,0,0,1,2.41-7.27,10.74,10.74,0,0,1,1.54-1.76c.2-.19.38-.31.49-.4s.18-.13.19-.12a14.81,14.81,0,0,0-2,2.4,15.24,15.24,0,0,0-2.29,7.17A26,26,0,0,0,33,466c.22,1,.39,1.74.49,2.28A4,4,0,0,1,33.65,469.07Z"/><path class="cls-5" d="M18.65,436.51a1.27,1.27,0,0,1,.2.31l.5.94c.44.82,1,2,1.79,3.48,1.49,2.95,3.49,7.05,5.6,11.63s3.92,8.82,5.19,11.82c.63,1.52,1.13,2.76,1.47,3.62.16.41.28.74.38,1a1.18,1.18,0,0,1,.12.36,1.29,1.29,0,0,1-.17-.33c-.12-.25-.26-.58-.44-1-.38-.89-.91-2.1-1.56-3.59-1.32-3-3.16-7.2-5.26-11.78s-4.08-8.69-5.52-11.66c-.7-1.46-1.28-2.65-1.7-3.52-.19-.39-.34-.72-.45-1A1.51,1.51,0,0,1,18.65,436.51Z"/><path class="cls-6" d="M28,460.55a16,16,0,0,0-12.81-6.92c-1.29,0-2.81.3-3.32,1.48s.35,2.5,1.28,3.39a13.63,13.63,0,0,0,14.92,2.39"/><path class="cls-5" d="M17.32,456.94a3.66,3.66,0,0,1,.81,0,7.37,7.37,0,0,1,.94,0c.36.05.78.06,1.24.16a15,15,0,0,1,1.48.31,16,16,0,0,1,1.66.52A17.5,17.5,0,0,1,27,459.75a17.1,17.1,0,0,1,3,2.63,14,14,0,0,1,1.08,1.36A13.23,13.23,0,0,1,31.9,465a11.7,11.7,0,0,1,.58,1.11,7.19,7.19,0,0,1,.37.86,4.1,4.1,0,0,1,.26.77c-.06,0-.44-1.06-1.39-2.63-.25-.39-.51-.82-.84-1.24a15.27,15.27,0,0,0-1.09-1.32,17.32,17.32,0,0,0-6.47-4.38,15.55,15.55,0,0,0-1.63-.54c-.52-.16-1-.25-1.46-.35C18.47,457,17.32,457,17.32,456.94Z"/></g><g id="freepik--404-error--inject-2"><polygon class="cls-7" points="302.32 469.76 329.5 469.76 368.49 280.98 342.43 275.59 302.32 469.76"/><polygon class="cls-5" points="419.38 409.95 255.18 376.03 250.53 371.86 267.89 314.52 275.51 315.02 263.76 308.76 270.48 275.25 434.68 309.17 439.34 313.35 432.53 346.31 419.52 346.55 426.68 347.92 431.33 352.09 419.38 409.95"/><polygon class="cls-7" points="414.73 405.78 250.53 371.86 263.24 310.34 270.86 310.84 264.5 304.23 270.48 275.25 434.68 309.17 427.87 342.13 414.87 342.37 426.68 347.92 414.73 405.78"/><path class="cls-5" d="M418.38,342H418l-1.15-.08-4.42-.36-3.19-.28-3.79-.45c-2.71-.34-5.82-.66-9.21-1.22l-5.35-.81c-1.86-.29-3.78-.67-5.77-1-4-.68-8.23-1.57-12.69-2.47-8.91-1.89-18.66-4.18-28.84-6.77-20.35-5.24-38.69-10.28-52.07-13.55-3.33-.85-6.37-1.54-9-2.18s-5-1.16-6.84-1.57l-4.32-1-1.12-.27a2.4,2.4,0,0,1-.38-.12l.39.06,1.14.21,4.34.87c1.89.38,4.2.87,6.86,1.48s5.71,1.27,9.06,2.09c13.4,3.16,31.77,8.14,52.11,13.37,10.18,2.59,19.91,4.9,28.8,6.82,4.46.91,8.68,1.82,12.67,2.52,2,.36,3.91.74,5.76,1l5.33.85c3.39.59,6.48.94,9.19,1.31l3.78.5,3.18.33,4.41.48,1.14.14Z"/><path class="cls-5" d="M426.63,336.78a2.92,2.92,0,0,1-.37-.24l-1-.75c-.91-.65-2.21-1.68-4-2.9a147.69,147.69,0,0,0-15.38-9.44,145.74,145.74,0,0,0-24.67-10.26,141.09,141.09,0,0,0-32.13-5.92c-11.61-.85-22.69.28-32.78.51a129.59,129.59,0,0,1-14.35-.29,97.79,97.79,0,0,1-29.63-7.21c-2-.83-3.47-1.53-4.48-2l-1.14-.58-.38-.21a2.05,2.05,0,0,1,.41.16l1.17.52c1,.46,2.53,1.13,4.51,1.92a100.87,100.87,0,0,0,17.26,5.19A98.45,98.45,0,0,0,302,307a133.61,133.61,0,0,0,14.29.23c10.06-.26,21.17-1.41,32.84-.56a140,140,0,0,1,32.26,6,144.52,144.52,0,0,1,24.71,10.42,136.18,136.18,0,0,1,15.31,9.58c1.73,1.24,3,2.31,3.9,3l1,.8A2.28,2.28,0,0,1,426.63,336.78Z"/><path class="cls-5" d="M347.26,292.69a4.4,4.4,0,0,1-.77.27l-2.25.67c-1,.3-2.17.63-3.58.95s-3,.76-4.8,1.08-3.74.75-5.87,1-4.39.6-6.78.87a136.4,136.4,0,0,1-15.66.61,140.77,140.77,0,0,1-15.62-1.29c-2.38-.38-4.64-.71-6.74-1.17s-4-.86-5.81-1.3-3.35-.89-4.74-1.29-2.58-.77-3.54-1.1l-2.22-.77a5,5,0,0,1-.76-.3,3.7,3.7,0,0,1,.8.18l2.25.66c1,.3,2.16.65,3.56,1s3,.83,4.75,1.2,3.71.85,5.81,1.22,4.35.75,6.72,1.11a149.48,149.48,0,0,0,15.54,1.23,147.5,147.5,0,0,0,15.59-.56c2.38-.26,4.65-.47,6.76-.81s4.07-.63,5.86-1,3.39-.69,4.8-1,2.62-.59,3.6-.85l2.27-.55A3.82,3.82,0,0,1,347.26,292.69Z"/><path class="cls-5" d="M303.55,351.35s.26.14.74.44l2.16,1.33c1.9,1.15,4.68,2.91,8.4,4.9a55.87,55.87,0,0,0,14.28,5.53,35.27,35.27,0,0,0,4.57.7,7.13,7.13,0,0,0,4.62-1,3.7,3.7,0,0,0,1.38-2,4.93,4.93,0,0,0,0-2.53,7.77,7.77,0,0,0-3.15-4.23c-12.52-8.3-30.15-14.35-50.1-14.91-2.49-.08-5-.08-7.56,0s-5.16.68-6.87,2.58a4.72,4.72,0,0,0-1.31,3.38,6.06,6.06,0,0,0,1.4,3.46c1.61,2.06,3.93,3.49,6.16,5,9,6.1,18.53,12.16,29.25,16.36s22.11,6.09,32.84,4.5a47.29,47.29,0,0,0,7.8-1.84,13.51,13.51,0,0,0,6.47-4.08,11.4,11.4,0,0,0,2.31-7.07,16.7,16.7,0,0,0-1.62-7.22,26,26,0,0,0-9.66-10.49,46.93,46.93,0,0,0-12.53-5.41c-4.25-1.23-8.46-2.11-12.48-3l-11.57-2.62-34.91-7.93L264.69,323l-2.46-.58c-.56-.13-.84-.22-.84-.22l.85.16,2.48.52,9.51,2.08,34.95,7.74,11.57,2.58c4,.91,8.24,1.77,12.52,3A47.34,47.34,0,0,1,346,343.74a26.53,26.53,0,0,1,9.88,10.7,17.34,17.34,0,0,1,1.68,7.46,12,12,0,0,1-2.42,7.43,14.11,14.11,0,0,1-6.74,4.28,46.65,46.65,0,0,1-7.91,1.87c-10.86,1.62-22.39-.31-33.14-4.52S287,360.69,278,354.56c-2.22-1.54-4.58-3-6.28-5.17a6.63,6.63,0,0,1-1.53-3.8,5.25,5.25,0,0,1,1.47-3.79,7.78,7.78,0,0,1,3.39-2.12,15.43,15.43,0,0,1,3.87-.64c2.58-.1,5.11-.09,7.61,0,20.07.61,37.75,6.71,50.35,15.13a8.15,8.15,0,0,1,3.29,4.48,5.3,5.3,0,0,1,0,2.74,4,4,0,0,1-1.53,2.18,7.51,7.51,0,0,1-4.87,1.07,36.25,36.25,0,0,1-4.63-.73,55.4,55.4,0,0,1-14.31-5.66c-3.72-2-6.48-3.82-8.36-5-.92-.59-1.63-1-2.12-1.38A5.32,5.32,0,0,0,303.55,351.35Z"/><path class="cls-5" d="M423.44,362a6.78,6.78,0,0,1-1-.19c-.62-.17-1.55-.35-2.74-.56a34.13,34.13,0,0,0-10.24.08A52.19,52.19,0,0,0,395,366,142.79,142.79,0,0,0,379,375.57a130.85,130.85,0,0,1-16.21,9.5,50.28,50.28,0,0,1-14.68,4.4,32.27,32.27,0,0,1-10.33-.29,21.36,21.36,0,0,1-2.72-.72,5.08,5.08,0,0,1-.92-.34,6.23,6.23,0,0,1,1,.22c.62.18,1.54.38,2.73.61A33.74,33.74,0,0,0,348,389a50.85,50.85,0,0,0,14.5-4.48,134.25,134.25,0,0,0,16.11-9.5,138.86,138.86,0,0,1,16.16-9.56,51.46,51.46,0,0,1,14.63-4.58,32.61,32.61,0,0,1,10.34.12,22.44,22.44,0,0,1,2.81.65A4.76,4.76,0,0,1,423.44,362Z"/><path class="cls-5" d="M420.4,378.3c0,.06-.78-.26-2.22-.58a17.17,17.17,0,0,0-6.19-.2,35.43,35.43,0,0,0-8.83,2.72,81,81,0,0,0-10.07,5.27c-3.48,2.06-6.8,4.07-10,5.6a41.19,41.19,0,0,1-8.81,3.17,25,25,0,0,1-6.28.62,12.34,12.34,0,0,1-1.71-.15,2.36,2.36,0,0,1-.59-.11,19.42,19.42,0,0,1,2.3,0,27.49,27.49,0,0,0,6.19-.8,43.06,43.06,0,0,0,8.66-3.26C386,389,389.28,387,392.77,385A76.63,76.63,0,0,1,403,379.69a34,34,0,0,1,9-2.63,16.31,16.31,0,0,1,6.3.4,13.58,13.58,0,0,1,1.63.55A2,2,0,0,1,420.4,378.3Z"/><path class="cls-5" d="M367.55,295.44c0,.17-6.33-1.07-14.06-2.77s-14-3.21-13.93-3.37,6.33,1.07,14.06,2.77S367.55,295.28,367.55,295.44Z"/><path class="cls-8" d="M322.06,333.38l-5.14-1.12-1.44,6.62-9.55-2.07,1.44-6.63-18.29-4,1.39-6.38,20.23-18.22,10.14,2.2-18.5,17.16,7,1.52,1.28-5.88,9.25,2-1.28,5.89,5.14,1.12Z"/><path class="cls-8" d="M326.37,323.13c2.48-11.44,10.34-16.59,19.18-14.67s13.8,9.89,11.31,21.31-10.35,16.6-19.14,14.68S323.88,334.55,326.37,323.13Zm20.66,4.5c1.58-7.26-.1-10.48-3.21-11.16s-6,1.54-7.62,8.8.11,10.49,3.27,11.18S345.45,334.9,347,327.63Z"/><path class="cls-8" d="M390.55,348.29l-5.14-1.12L384,353.8l-9.56-2.11,1.45-6.63-18.29-4,1.39-6.38,20.22-18.22,10.14,2.23-18.49,17.15,7,1.53,1.28-5.89,9.24,2-1.28,5.88,5.14,1.12Z"/><path class="cls-8" d="M314.74,357.92l-.51,2.17-10.41-2.4,3.25-13.88,10.14,2.37-.51,2.16-7.55-1.77-.85,3.61,6.7,1.58-.49,2.12-6.71-1.57-.9,3.83Z"/><path class="cls-8" d="M326.2,362.89l-1.88-4.73a5.17,5.17,0,0,1-.54-.11l-3.14-.73-.95,4-2.58-.6,3.26-13.89,5.71,1.34c3.65.86,5.48,3.25,4.76,6.33a4.58,4.58,0,0,1-4,3.69L329,363.5Zm-.75-12.52-3-.71-1.3,5.54,3,.7c2.26.53,3.68-.23,4.09-2s-.53-3-2.79-3.53Z"/><path class="cls-8" d="M340.7,366.29l-1.88-4.73a5.17,5.17,0,0,1-.54-.11l-3.13-.76-1,4.05-2.58-.61,3.25-13.89,5.72,1.34c3.65.86,5.47,3.25,4.75,6.33a4.55,4.55,0,0,1-4,3.69l2.12,5.31ZM340,353.77l-3-.71-1.3,5.54,3,.7c2.26.53,3.67-.23,4.08-2s-.52-3-2.78-3.53Z"/><path class="cls-8" d="M346.76,360.38a7.32,7.32,0,0,1,9.15-5.38c4.3,1,6.78,4.77,5.81,8.89s-4.85,6.4-9.15,5.39S345.8,364.49,346.76,360.38Zm12.36,2.9a5,5,0,1,0-6,3.74h0a4.87,4.87,0,0,0,5.94-3.46l.06-.28Z"/><path class="cls-8" d="M371.92,373.61,370,368.88l-.55-.11-3.13-.73-.95,4-2.58-.6,3.26-13.89,5.71,1.34c3.65.86,5.48,3.25,4.76,6.33a4.59,4.59,0,0,1-4,3.69l2.13,5.31Zm-.75-12.53-3-.7-1.3,5.53,3,.71c2.27.53,3.68-.23,4.09-2S373.43,361.61,371.17,361.08Z"/></g><g id="freepik--Ballon--inject-2"><path class="cls-5" d="M327.21,132.93a2.69,2.69,0,0,1,.38.19l1.07.61a29.91,29.91,0,0,1,3.83,2.78,34.1,34.1,0,0,1,9.85,14.2,35.92,35.92,0,0,1,2.1,11.84,38.63,38.63,0,0,1-2.37,13.59,37.12,37.12,0,0,1-8,13,30,30,0,0,1-6.31,5.08,28,28,0,0,1-7.72,3.17,51.86,51.86,0,0,1-16.34,1c-5.29-.39-10.34-1.08-15.18-1.3a45.61,45.61,0,0,0-13.63,1.11,25.89,25.89,0,0,0-10.57,5.27,17.49,17.49,0,0,0-5.38,8.06,16.28,16.28,0,0,0-.69,7.33,12.9,12.9,0,0,0,1.46,4.44c.53.94.88,1.39.85,1.41a10.61,10.61,0,0,1-.94-1.36,12.64,12.64,0,0,1-1.57-4.46,16.22,16.22,0,0,1,.61-7.45,17.73,17.73,0,0,1,5.42-8.25,26,26,0,0,1,10.71-5.4,45.52,45.52,0,0,1,13.76-1.19c4.87.21,9.93.89,15.19,1.27a51.8,51.8,0,0,0,16.19-.94,28,28,0,0,0,7.58-3.11,29.57,29.57,0,0,0,6.2-5,36.86,36.86,0,0,0,7.88-12.8A38.49,38.49,0,0,0,344,162.54a35.36,35.36,0,0,0-2-11.71,33.66,33.66,0,0,0-13.39-17l-1-.65Z"/><path class="cls-1" d="M258,6.69c2.6,7.54,5.21,15.2,5.58,23.16S261.77,46.24,256,51.69c-6.7,6.36-16.64,7.57-25.83,8.46,6.61.23,13.86,1.8,17.82,7.1,4.54,6.07,3.06,14.75,0,21.67s-7.65,13.37-8.9,20.85a34.59,34.59,0,0,1,53.09,29.74c5.69-10.73,15.45-19.51,27.14-22.8s25.17-.6,33.91,7.83A44.79,44.79,0,0,1,364.51,62.2c.32-.23.64-.45,1-.66-5.32,4.42-13.64,3.89-19.3-.09s-8.88-10.7-10.08-17.51-.61-13.79,0-20.68c-6,7.79-18.43,9.56-26.35,3.74-8.12-6-10.17-17-11.6-27,.74,9.78-6.75,19.49-16.4,21.26S261.66,16.6,258.88,7.2"/><path class="cls-6" d="M322.23,127.26c-.71,4.71.6,9.53,2.06,14.06a5.79,5.79,0,0,0,1.26,2.37,2.32,2.32,0,0,0,2.47.65,3.14,3.14,0,0,0,1.48-2,16.84,16.84,0,0,0,.91-5.45c1.49,1.1,3.1,2.25,5,2.34s3.89-1.42,3.6-3.25a4.72,4.72,0,0,0-1.75-2.54l-9.89-9.13-5.07,3"/><path class="cls-6" d="M269.43,32.09s-26.31,19.42-18.26,50.47l2.65.33,9.29-9.62,12.8,17.78-1.78-18.13,5.48,4L289,57.3s-14-10-12-19.79C277,37.47,268.81,37,269.43,32.09Z"/><path class="cls-6" d="M259.19,97.69a37.44,37.44,0,0,0,11.36,21.24l15.62-9.41S265.87,105.82,259.19,97.69Z"/><path class="cls-6" d="M291.92,118.45s7.21,11.61,25.52,11c13-.44,21.39-17,18.15-32.83l-10.6,8-3.93-2.56v8.36s-4.27,6.17-9.79,2.69C311.29,113.11,306.49,123.31,291.92,118.45Z"/><path class="cls-6" d="M298.67,28.74c-.62.27,12.51,15.74,12.62,25,0,0,4.33-8.45,13.16-8.81,0,0,.32-7.32,7.45-5.79C331.9,39.12,316.67,21,298.67,28.74Z"/><path class="cls-6" d="M341.36,59s6.21,10.9,6,22c0,0-8.95-9.21-16.18-2.73l-1.81-4.37s4.27-.85,4.25-6-5.07-8.16-5.07-8.16S338.34,68,341.36,59Z"/><path class="cls-5" d="M287.84,85.78c0,.14-11.4,3-25.54,6.42s-25.63,6-25.66,5.91,11.4-3,25.54-6.42S287.81,85.69,287.84,85.78Z"/><path class="cls-5" d="M290.84,67.69c0,.13-6.2-2-13.75-4.71s-13.62-5-13.57-5.19,6.2,2,13.75,4.71S290.89,67.56,290.84,67.69Z"/><path class="cls-5" d="M281.83.21c.14,0,4.93,13.46,10.71,30.17s10.35,30.31,10.21,30.31-4.93-13.45-10.7-30.16S281.7.26,281.83.21Z"/><path class="cls-5" d="M319.93,39a15,15,0,0,1-.09,3c-.14,1.82-.42,4.34-.88,7.1s-1,5.23-1.46,7a14.73,14.73,0,0,1-.88,2.83,20.77,20.77,0,0,1,.52-2.92c.37-1.79.85-4.26,1.31-7s.79-5.24,1-7.05A18.45,18.45,0,0,1,319.93,39Z"/><path class="cls-5" d="M358.05,40.92c.07.13-8.68,5.37-19.55,11.71S318.77,64,318.7,63.88s8.67-5.36,19.54-11.7S358,40.8,358.05,40.92Z"/><path class="cls-5" d="M358.15,89.56a7,7,0,0,1-1.45-.1c-.93-.11-2.28-.27-3.93-.5-3.32-.45-7.89-1.14-12.93-2S330.27,85.2,327,84.5c-1.64-.34-3-.64-3.87-.86a6.76,6.76,0,0,1-1.4-.39,8.75,8.75,0,0,1,1.44.2l3.9.69,12.86,2.31,12.89,2.16,3.91.65A6.9,6.9,0,0,1,358.15,89.56Z"/><path class="cls-5" d="M343.69,132.74c-.11.1-7.73-8.2-17-18.54s-16.75-18.81-16.64-18.9,7.73,8.21,17,18.55S343.8,132.69,343.69,132.74Z"/><path class="cls-5" d="M283.06,129a5.07,5.07,0,0,1,.37-1.14c.26-.73.67-1.77,1.19-3,1-2.55,2.53-6.06,4.26-9.9s3.38-7.29,4.6-9.76c.62-1.23,1.13-2.23,1.49-2.91a4.51,4.51,0,0,1,.62-1,6.35,6.35,0,0,1-.44,1.12l-1.33,3c-1.19,2.62-2.75,6-4.46,9.81s-3.23,7.22-4.4,9.84c-.53,1.18-1,2.17-1.35,3A4.92,4.92,0,0,1,283.06,129Z"/><path class="cls-5" d="M290.81,78.69c0-.09.8-.17,2-.65a8.63,8.63,0,0,0,5.46-7.61c.07-1.27-.11-2.07,0-2.08a4.29,4.29,0,0,1,.39,2.09A8.24,8.24,0,0,1,293,78.38,4.32,4.32,0,0,1,290.81,78.69Z"/><path class="cls-5" d="M299.1,92.89a19.51,19.51,0,0,0,.58-1.93,6.22,6.22,0,0,0-4.55-7.27c-1.18-.34-2-.25-2-.34a3.48,3.48,0,0,1,2.07,0,6.23,6.23,0,0,1,4.92,7.32c0,.15-.06.3-.1.44A3.55,3.55,0,0,1,299.1,92.89Z"/><path class="cls-5" d="M318.6,84.41c0,.08-.88-.25-2.31-.42a11.68,11.68,0,0,0-5.49.7A11.48,11.48,0,0,0,306.33,88c-.93,1.11-1.32,1.93-1.4,1.89A5.33,5.33,0,0,1,306,87.69a10.52,10.52,0,0,1,10.3-4.09A5.54,5.54,0,0,1,318.6,84.41Z"/><path class="cls-5" d="M318.07,78.57a3.13,3.13,0,0,1-1.72-.38A6.23,6.23,0,0,1,312.8,71a3,3,0,0,1,.73-1.59c.08,0-.22.63-.37,1.66a6.4,6.4,0,0,0,3.39,6.75C317.43,78.36,318.08,78.48,318.07,78.57Z"/><path class="cls-5" d="M312.17,66a5.08,5.08,0,0,1-1.29,1.06,7.63,7.63,0,0,1-3.78,1.47,4.19,4.19,0,0,1-3.65-1.73c-.6-1-.39-1.68-.35-1.65a5,5,0,0,0,.65,1.43A4,4,0,0,0,307.07,68a8.85,8.85,0,0,0,3.62-1.26A5.43,5.43,0,0,1,312.17,66Z"/><g class="cls-9"><path d="M322.09,128.54a25.43,25.43,0,0,0,5.78-3.71l1.85,1.71c-2.52,1.81-5.44,3.51-7.56,5.78a20.76,20.76,0,0,1-.07-3.78"/></g><path class="cls-5" d="M328.42,124.23a10.25,10.25,0,0,1-6.87,4.46c0-.15,1.72-.71,3.59-1.94S328.3,124.13,328.42,124.23Z"/><path class="cls-2" d="M324.42,124.48a6.31,6.31,0,0,1-1.07.54,12.31,12.31,0,0,1-1.31.52,18.42,18.42,0,0,1-1.78.57,27.56,27.56,0,0,1-4.78.88,31.13,31.13,0,0,1-6-.07,32.21,32.21,0,0,1-5.82-1.3,26.91,26.91,0,0,1-4.45-2,12.29,12.29,0,0,1-1.6-1,9.16,9.16,0,0,1-1.15-.81,5.61,5.61,0,0,1-.92-.77c.07-.08,1.41,1,3.85,2.22a30.42,30.42,0,0,0,4.42,1.82,30,30,0,0,0,16.31.59C322.82,125.1,324.37,124.38,324.42,124.48Z"/><path class="cls-2" d="M325,140.94a12.35,12.35,0,0,1-1.34-8c.16,0,.15,1.82.53,4S325.14,140.88,325,140.94Z"/><path class="cls-2" d="M269.23,114.36a7,7,0,0,1-1.7-1.42,30.16,30.16,0,0,1-6.11-8.76,7.8,7.8,0,0,1-.75-2.09c.15-.07,1.46,3,3.84,6.44S269.34,114.25,269.23,114.36Z"/><path class="cls-2" d="M259.84,47.47c.08.06-.93,1.56-2.26,4.14a48.6,48.6,0,0,0-5.41,21.79c0,2.91.15,4.7.06,4.71a5.36,5.36,0,0,1-.21-1.25,33.3,33.3,0,0,1-.22-3.46,44.35,44.35,0,0,1,5.45-22c.72-1.27,1.34-2.28,1.82-3A5.5,5.5,0,0,1,259.84,47.47Z"/><path class="cls-2" d="M267.2,38.79c.09.11-.53.78-1.4,1.49s-1.64,1.19-1.73,1.08.54-.78,1.4-1.49S267.11,38.69,267.2,38.79Z"/><path class="cls-5" d="M287.64,284.33a2.1,2.1,0,0,1,.56.66,4,4,0,0,1,.53,2.43A6,6,0,0,1,287,291a13,13,0,0,1-4.28,3,12.49,12.49,0,0,1-6.24,1,11.9,11.9,0,0,1-6.6-3,11.69,11.69,0,0,1-3.57-7.13,16.2,16.2,0,0,1,1.27-8.5,27.42,27.42,0,0,1,4.67-7.22c1.82-2.1,3.72-4,5.24-6a16,16,0,0,0,3.13-6.32,14,14,0,0,0-4.55-13.73,20.37,20.37,0,0,0-2.71-1.91,10.67,10.67,0,0,1,2.84,1.75,14.16,14.16,0,0,1,4.79,7.66,14.64,14.64,0,0,1,.06,6.32,16.34,16.34,0,0,1-3.18,6.52c-1.54,2.05-3.44,3.94-5.23,6a27.57,27.57,0,0,0-4.58,7.1,15.58,15.58,0,0,0-1.24,8.22,11.17,11.17,0,0,0,3.39,6.85,11.46,11.46,0,0,0,6.32,2.9,12.28,12.28,0,0,0,6.05-.88c3.48-1.47,5.77-4,5.93-6.19a4.06,4.06,0,0,0-.42-2.35C287.85,284.55,287.61,284.35,287.64,284.33Z"/></g><g id="freepik--Character--inject-2"><path class="cls-6" d="M85.1,417.49c2.94-13.71,19.73-113.21,19.73-113.21s-12.11,1.92-14.55,6.26c-2.73,4.77-15.73,78.08-17.19,103a23.9,23.9,0,0,0-3.59,0A13,13,0,0,0,61.33,417,9.85,9.85,0,0,0,59.15,427a9.73,9.73,0,0,0,3.49,4.47c-.19,2.13.49,4.74,2.16,5.83a5.8,5.8,0,0,0,6.46-.17,3.58,3.58,0,0,0,6.43.85c.8,1.86,3.42,2,5.31,1.34a11.38,11.38,0,0,0,7-8.3,14.08,14.08,0,0,0-2.34-10.74A16.69,16.69,0,0,0,85.1,417.49Z"/><g class="cls-9"><path d="M87.55,403.22c-7.16-12.58-10.81-26-5.38-45.46,3.88-13.95,11.62-28.22,18.74-40.83"/></g><path class="cls-5" d="M83.63,430a5.79,5.79,0,0,0,.88-.76,3.37,3.37,0,0,0,.72-2.91A3.91,3.91,0,0,0,82,423.48a5.44,5.44,0,0,0-4.93,2.21A9.17,9.17,0,0,0,75.2,431a10.67,10.67,0,0,0,.86,4.6,11.84,11.84,0,0,0,2.52,3.55s-.1,0-.27-.16a4.67,4.67,0,0,1-.68-.57,8.88,8.88,0,0,1-1.91-2.67,10.87,10.87,0,0,1-1-4.77,9.5,9.5,0,0,1,1.92-5.64A5.92,5.92,0,0,1,82.05,423a4.29,4.29,0,0,1,3.54,3.21,3.54,3.54,0,0,1-.93,3.13,3,3,0,0,1-.73.53C83.74,430,83.63,430,83.63,430Z"/><path class="cls-5" d="M61.48,430.85a7.34,7.34,0,0,1,1,.53,7.81,7.81,0,0,0,2.87.81,7.67,7.67,0,0,0,4.26-.83,5.94,5.94,0,0,0,2-1.62,3.24,3.24,0,0,0,.66-2.51,8.06,8.06,0,0,0-2.42-4.2,9.9,9.9,0,0,0-3.51-2.17l-.61-.22.63-.16a28.37,28.37,0,0,0,4.55-1.72,4.58,4.58,0,0,1-1.11.74,15.49,15.49,0,0,1-3.35,1.36v-.38a10,10,0,0,1,3.71,2.2,9.72,9.72,0,0,1,1.61,1.95,6.85,6.85,0,0,1,1,2.53,3.76,3.76,0,0,1-.77,2.89,6.51,6.51,0,0,1-2.16,1.74,7.85,7.85,0,0,1-4.52.77,7.25,7.25,0,0,1-2.93-1,4.6,4.6,0,0,1-.67-.49C61.55,430.94,61.47,430.86,61.48,430.85Z"/><path class="cls-5" d="M70.6,431c.17.06-.43,1.49-.2,3.28a25,25,0,0,0,1,3.15,4.66,4.66,0,0,1-1.49-3.08A4.42,4.42,0,0,1,70.6,431Z"/><path class="cls-5" d="M78,424a4.39,4.39,0,0,0-.46-1.22,2.49,2.49,0,0,0-1-.85,2.72,2.72,0,0,0-1.62-.14,4.58,4.58,0,0,0-2.55,1.71c-.51.65-.76,1.11-.83,1.07s.07-.54.53-1.28a4.36,4.36,0,0,1,2.74-2,3,3,0,0,1,1.94.21,2.69,2.69,0,0,1,1.14,1.1C78.26,423.43,78,424,78,424Z"/><g class="cls-9"><path d="M66.78,420.55a4.8,4.8,0,0,1,4.6,1.24,7.22,7.22,0,0,1,4-2.46,3.27,3.27,0,0,1,3.73,2.23,4,4,0,0,1,5.29,2,4.46,4.46,0,0,1,.32,1.19,5.54,5.54,0,0,0-6.91-.78,2.38,2.38,0,0,0-1.68-2.2,3.36,3.36,0,0,0-2.83.52,5.82,5.82,0,0,0-1.86,2.28,9.16,9.16,0,0,0-4.89-4.07"/></g><path class="cls-8" d="M63.3,430.29a4.77,4.77,0,0,1-1.75-1.43,8.65,8.65,0,0,1-.76-10.47,4.69,4.69,0,0,1,1.52-1.7c.07.06-.57.67-1.25,1.87a9,9,0,0,0,.73,10.05C62.64,429.69,63.36,430.22,63.3,430.29Z"/><path class="cls-6" d="M280.16,234.94c-.66-1.91-2.46-3.82-4.4-3.27a3.57,3.57,0,0,0-2.27-4.51,3.53,3.53,0,0,0-2.46.08,5.81,5.81,0,0,0-4-5.12c-1.91-.6-4.35.52-5.88,2a9.62,9.62,0,0,0-5.67.13,9.83,9.83,0,0,0-6.43,8,13,13,0,0,0,2.49,8.52,33.34,33.34,0,0,0,5.24,5.7c-10.3,48.09-63.07,56.45-63.07,56.45l4.95,19.36c50.57-12.49,64.5-52.81,68.29-71.75h1.33a14.12,14.12,0,0,0,9.8-5A11.38,11.38,0,0,0,280.16,234.94Z"/><path class="cls-5" d="M273.28,241.37a1,1,0,0,1,.11.29,2.8,2.8,0,0,1,.06.91,3.49,3.49,0,0,1-1.83,2.69,4.28,4.28,0,0,1-4.73-.71,5.89,5.89,0,0,1-1.62-5.66,9.56,9.56,0,0,1,3.15-5.06,10.75,10.75,0,0,1,4.33-2.24,9.05,9.05,0,0,1,3.28-.21,3.62,3.62,0,0,1,.87.17c.2,0,.3.09.29.1a12.21,12.21,0,0,0-4.34.3,10.83,10.83,0,0,0-4.12,2.24,9.28,9.28,0,0,0-3,4.81,5.45,5.45,0,0,0,1.43,5.19,3.9,3.9,0,0,0,4.24.75,3.41,3.41,0,0,0,1.8-2.4A7.62,7.62,0,0,0,273.28,241.37Z"/><path class="cls-5" d="M260,223.69h.29a4.73,4.73,0,0,1,.82.22,7.38,7.38,0,0,1,2.63,1.62,7.91,7.91,0,0,1,2.26,4,6.12,6.12,0,0,1,0,2.76,3.82,3.82,0,0,1-1.75,2.43,6.67,6.67,0,0,1-2.6.83,9.94,9.94,0,0,1-6.57-1.5l.28-.25a16.62,16.62,0,0,1,1.07,3.45,4.24,4.24,0,0,1,.12,1.33A26.13,26.13,0,0,0,255,234l-.27-.58.56.34a9.68,9.68,0,0,0,3.9,1.33,8,8,0,0,0,4.79-.78,3.3,3.3,0,0,0,1.52-2.1,5.73,5.73,0,0,0,0-2.54,7.64,7.64,0,0,0-2.05-3.83,7.9,7.9,0,0,0-2.45-1.71A6.65,6.65,0,0,0,260,223.69Z"/><path class="cls-5" d="M265.86,230.61a4.46,4.46,0,0,1,2.14-2.67,4.68,4.68,0,0,1,3.33-.79,23.84,23.84,0,0,0-3.06,1.23A16.21,16.21,0,0,0,265.86,230.61Z"/><path class="cls-5" d="M265.08,240.76c.05,0-.26.59-1.18.78a2.77,2.77,0,0,1-1.58-.19,3,3,0,0,1-1.39-1.37,4.39,4.39,0,0,1-.18-3.39c.29-.82.6-1.26.66-1.23a7.53,7.53,0,0,1-.3,1.33,4.46,4.46,0,0,0,.28,3.05,2.68,2.68,0,0,0,1.14,1.17,2.38,2.38,0,0,0,1.31.26A4.21,4.21,0,0,0,265.08,240.76Z"/><g class="cls-9"><path d="M255.32,234.28a4.79,4.79,0,0,0,3.88,2.77,7.32,7.32,0,0,0,.63,4.67c.82,1.37,2.68,2.23,4.09,1.48a4,4,0,0,0,4.92,2.79,4.19,4.19,0,0,0,1.08-.48,5.54,5.54,0,0,1-5-4.86,2.37,2.37,0,0,1-2.77.09,3.33,3.33,0,0,1-1.38-2.52,5.74,5.74,0,0,1,.58-2.88,9.16,9.16,0,0,1-6.22-1.19"/></g><path class="cls-6" d="M126.21,421.4q4.77,20.22,9.52,40.45a22.64,22.64,0,0,0-14.29,2.66c-1.5.85-3.09,2.52-2.28,4,.63,1.2,2.28,1.29,3.63,1.23,10.52-.45,21,.44,31.58,0l-.58-41"/><path class="cls-6" d="M183.25,421.4q-4.75,20.22-9.52,40.45a22.68,22.68,0,0,1,14.3,2.66c1.5.85,3.08,2.52,2.28,4-.64,1.2-2.28,1.29-3.63,1.23-10.53-.45-21,.44-31.58,0l.58-41"/><g class="cls-9"><path d="M128.43,430.82l1.31,5.35c8.6.47,16.94,1.77,24.16.18l-.07-4.72s-8.9-.47-14-1.81h0l2.33,4.27A63.57,63.57,0,0,1,128.43,430.82Z"/></g><g class="cls-9"><path d="M155.55,436.27s8.48,2.3,16.66.88c6.92-1.19,7.89-2.44,7.89-2.44l2.15-9s-9.58,5.47-24.47,2.52l7.77,3.18h-9.92Z"/></g><path class="cls-6" d="M221.74,369.53a92.44,92.44,0,0,0-12.34-18.72v-.07a30.7,30.7,0,0,0,8,.59,45.71,45.71,0,0,1-11.72-12.83c-4.09-15.09-8.47-30.25-8.56-45.67l-91.75-.71a283.5,283.5,0,0,1-12.68,54c-6.33,19-13.48,41.61-.85,60.22a33.82,33.82,0,0,0,8.54,8.5A124,124,0,0,0,113,426.47c-.77-2-1.54-3.9-2.29-5.85l1.57.7a62.3,62.3,0,0,0,31.27,13.37l-1.7-4.07c13.14,2.28,26.49,1.59,38.42-4,22.27-10.5,34-22.93,36.76-39.23,1.41-8.26-.19-15.68-2.67-23.09Z"/><path class="cls-5" d="M191.46,374.06h-.37a4.59,4.59,0,0,1-1-.21,27.83,27.83,0,0,1-3.81-1.14A32,32,0,0,1,175,365.45l.42-.28c.44,1.13.9,2.3,1.36,3.5.84,2.18,1.66,4.28,2.41,6.22l.57,1.48-1-1.23c-2.86-3.55-5.34-6.62-7.16-8.89l-2-2.59a7.42,7.42,0,0,1-.69-1,5.56,5.56,0,0,1,.82.86l2.15,2.51,7.31,8.76-.43.25c-.75-1.94-1.57-4-2.42-6.21-.47-1.2-.92-2.38-1.36-3.5l-.44-1.14.86.87a33.58,33.58,0,0,0,11,7.3c1.22.49,2.47.92,3.73,1.29A12.74,12.74,0,0,1,191.46,374.06Z"/><path class="cls-5" d="M112.2,355.91a8.91,8.91,0,0,1-1-2.38,26.26,26.26,0,0,1-1.25-6.14,26.76,26.76,0,0,1,.23-6.26,9.14,9.14,0,0,1,.63-2.52,20,20,0,0,1-.26,2.56,32.62,32.62,0,0,0-.08,6.17,33.83,33.83,0,0,0,1.08,6.08A21.7,21.7,0,0,1,112.2,355.91Z"/><path class="cls-5" d="M115.27,348.09a5.27,5.27,0,0,1-.63-1.81,20.73,20.73,0,0,1-.58-4.57,21.36,21.36,0,0,1,.44-4.58,5.86,5.86,0,0,1,.58-1.82,62.23,62.23,0,0,0-.5,6.4A61.89,61.89,0,0,0,115.27,348.09Z"/><path class="cls-5" d="M147.86,406.82a2.05,2.05,0,0,1-.55-.1c-.36-.09-.89-.2-1.56-.4a48.3,48.3,0,0,1-5.59-2,52.5,52.5,0,0,1-16.3-10.92l.39-.34c.21.28.42.59.64.9a34.6,34.6,0,0,1,4.48,9.18l.19.6-.54-.32a26.9,26.9,0,0,1-11.36-12.78c-.17-.42-.28-.75-.36-1a1.4,1.4,0,0,1-.1-.35,11,11,0,0,1,.61,1.24,30.46,30.46,0,0,0,1.87,3.35,28,28,0,0,0,9.58,9.08l-.35.29a34.81,34.81,0,0,0-4.45-9l-.62-.89.39-.34a54.5,54.5,0,0,0,16.07,11,57.42,57.42,0,0,0,5.51,2.12c.66.23,1.18.37,1.52.49A2.58,2.58,0,0,1,147.86,406.82Z"/><path class="cls-5" d="M100.9,313.75a1,1,0,0,1,0,.24v.68c-.05.61-.16,1.49-.31,2.63-.32,2.27-.92,5.55-1.89,9.53s-2.34,8.69-4,13.86-3.49,10.83-5.18,16.85a125.46,125.46,0,0,0-3.76,17.15A59.58,59.58,0,0,0,85.53,389a41,41,0,0,0,2.19,9.4c.42,1.06.75,1.89,1,2.43l.27.63a.83.83,0,0,1,.08.22s0-.06-.13-.19a3.07,3.07,0,0,1-.32-.61c-.29-.53-.65-1.35-1.09-2.41A38.39,38.39,0,0,1,85.15,389a58.47,58.47,0,0,1,.13-14.42A121.17,121.17,0,0,1,89,357.35c1.71-6,3.59-11.68,5.23-16.85s3.06-9.83,4.07-13.79,1.67-7.22,2-9.48c.18-1.13.32-2,.4-2.61l.11-.68A.76.76,0,0,1,100.9,313.75Z"/><path class="cls-8" d="M104.8,411.43a4.78,4.78,0,0,1-.65-.54c-.39-.37-1-.87-1.76-1.64a35.92,35.92,0,0,1-5.38-7,46.07,46.07,0,0,1-5-12.15,58.68,58.68,0,0,1-1.75-16,86.53,86.53,0,0,1,2.06-16c1.06-4.83,2.3-9.11,3.41-12.68s2.09-6.42,2.77-8.39c.34-.95.6-1.71.8-2.27a4.41,4.41,0,0,1,.32-.78,5.84,5.84,0,0,1-.22.82c-.17.56-.41,1.33-.71,2.29-.62,2-1.54,4.87-2.61,8.44s-2.26,7.85-3.29,12.67a89.14,89.14,0,0,0-2,15.86A60,60,0,0,0,92.55,390,46.61,46.61,0,0,0,97.38,402a37.93,37.93,0,0,0,5.21,7.07c.68.79,1.31,1.3,1.68,1.71A4.37,4.37,0,0,1,104.8,411.43Z"/><path class="cls-8" d="M114.18,414.5a34.93,34.93,0,0,1-4.83-3.73,33.78,33.78,0,0,1-4.49-4.13,36.26,36.26,0,0,1,4.82,3.73A36.67,36.67,0,0,1,114.18,414.5Z"/><path class="cls-7" d="M77.92,133.75c-.75.19-19.23,8.73-15.75,33.24,3,21.47,15.75,22,15.75,22l23.68-20.7S84.41,166.46,80,153.93C75.46,141.18,77.92,133.75,77.92,133.75Z"/><path class="cls-5" d="M88.27,163.46c0,.1-1.71.06-4.36.7a21.69,21.69,0,0,0-15.36,13.47,39.35,39.35,0,0,0-1.26,4.24,4.83,4.83,0,0,1,.1-1.2,19.14,19.14,0,0,1,.81-3.17,21,21,0,0,1,15.59-13.7,17.81,17.81,0,0,1,3.25-.39A4.62,4.62,0,0,1,88.27,163.46Z"/><path class="cls-5" d="M81.22,155.69c0,.1-1.39-.16-3.6,0a17.07,17.07,0,0,0-13.84,9c-1,2-1.37,3.31-1.47,3.28a3.11,3.11,0,0,1,.19-1,14.08,14.08,0,0,1,1-2.49,16.49,16.49,0,0,1,14.14-9.21,13.92,13.92,0,0,1,2.66.13A3.29,3.29,0,0,1,81.22,155.69Z"/><path class="cls-5" d="M63.17,151.34a1.62,1.62,0,0,1,.22-.67,9,9,0,0,1,1-1.66,10.57,10.57,0,0,1,5.13-3.67,8.84,8.84,0,0,1,6.28.34,7.62,7.62,0,0,1,1.67,1c.36.27.53.46.51.48a14.06,14.06,0,0,0-2.32-1.1,9.08,9.08,0,0,0-6-.19,11.08,11.08,0,0,0-5,3.41C63.66,150.46,63.26,151.38,63.17,151.34Z"/><path class="cls-2" d="M73.31,138,72,139.5a33.35,33.35,0,0,0-3.32,4.26A32.57,32.57,0,0,0,67,177.58,34.41,34.41,0,0,0,70,182.13a19,19,0,0,1,1.2,1.59,2.16,2.16,0,0,1-.38-.36c-.22-.25-.58-.6-1-1.11a29.3,29.3,0,0,1-3.07-4.5,32.07,32.07,0,0,1,1.61-34.2,29.72,29.72,0,0,1,3.49-4.19,13,13,0,0,1,1.08-1A2,2,0,0,1,73.31,138Z"/><path class="cls-7" d="M218.16,135.86c.74.18,19.22,8.73,15.74,33.24-3,21.47-15.74,22-15.74,22l-23.68-20.69s17.18-1.83,21.63-14.36C220.61,143.29,218.16,135.86,218.16,135.86Z"/><path class="cls-5" d="M207.8,165.56a5.36,5.36,0,0,1,1.2-.05,18.75,18.75,0,0,1,3.25.4,21,21,0,0,1,15.59,13.7,19.14,19.14,0,0,1,.81,3.17,4.33,4.33,0,0,1,.11,1.19c-.11,0-.29-1.68-1.27-4.24a21.65,21.65,0,0,0-15.32-13.46C209.55,165.63,207.79,165.69,207.8,165.56Z"/><path class="cls-5" d="M215.34,157.88a3.39,3.39,0,0,1,.94-.22,13.4,13.4,0,0,1,2.61-.14,15.59,15.59,0,0,1,8.13,2.73,16.75,16.75,0,0,1,5.63,6.44,14.52,14.52,0,0,1,.93,2.45,3,3,0,0,1,.18.94c-.09,0-.42-1.3-1.44-3.22a17.76,17.76,0,0,0-5.59-6.22,16.21,16.21,0,0,0-7.86-2.79C216.7,157.69,215.35,158,215.34,157.88Z"/><path class="cls-5" d="M232.9,153.45c-.08,0-.48-.88-1.48-2.11a11,11,0,0,0-5-3.4,9,9,0,0,0-6,.19c-1.49.54-2.26,1.18-2.32,1.1s.15-.21.51-.49a7.62,7.62,0,0,1,1.67-1,8.86,8.86,0,0,1,6.29-.34,10.58,10.58,0,0,1,5.12,3.68,8.72,8.72,0,0,1,1,1.66A1.77,1.77,0,0,1,232.9,153.45Z"/><path class="cls-2" d="M219.83,138.08a5.74,5.74,0,0,1,.41,1.14,10.76,10.76,0,0,1,.36,1.38,17.05,17.05,0,0,1,.34,1.87,21.93,21.93,0,0,1,.2,2.28q.06,1.32,0,2.64a29.16,29.16,0,0,1-1,5.94,28.67,28.67,0,0,1-2.36,5.56c-.48.79-.91,1.56-1.41,2.22a19.17,19.17,0,0,1-1.42,1.81,15.27,15.27,0,0,1-1.29,1.38,8.28,8.28,0,0,1-1,1,4.8,4.8,0,0,1-1,.74c-.07-.08,1.29-1.17,3-3.32A19.81,19.81,0,0,0,216,160.9c.48-.65.89-1.42,1.36-2.2a30.87,30.87,0,0,0,2.27-5.48,30.36,30.36,0,0,0,1.06-5.83c0-.91.11-1.77.07-2.59a21.23,21.23,0,0,0-.14-2.25C220.27,139.76,219.72,138.11,219.83,138.08Z"/><path class="cls-6" d="M133.41,150s-3.12.89-1.78-11.61L142.34,150s-4.35-7.16-5.52-13.41c0,0,13.54,12.53,18.24,13.41s36.86,2.67,55.61,18.75,27.26,31.66,29.3,48.52c3.32,27.33-1.61,50.62-14.56,66.25l-.44-4.46s-13.85,20.09-34.84,25.9-83.07,0-83.07,0-34.83-9.38-46.89-36.62-5.36-31.26-5.36-31.26L49.62,242s-1.36-39.22,33.77-67C111.08,153.13,133.41,150,133.41,150Z"/><path class="cls-5" d="M201,300.51a1.23,1.23,0,0,1-.23.14L200,301c-.63.32-1.54.8-2.76,1.38-2.42,1.16-6,2.78-10.55,4.49a93.73,93.73,0,0,1-16.7,4.62,64.33,64.33,0,0,1-10.36,1,51.47,51.47,0,0,1-11.28-1.06l.2-.46,8.67,6,1.05.73-1.26-.27-2.32-.49-20.64-4.43.23-.42,4.84,5.1.56.58-.78-.19a122.42,122.42,0,0,1-26.66-9.88c-3.1-1.58-5.47-3-7.08-3.92-.81-.48-1.41-.87-1.82-1.13l-.46-.31c-.11-.07-.16-.1-.15-.11l.17.08.48.27,1.86,1.07c1.62.93,4,2.26,7.13,3.8A126.91,126.91,0,0,0,139,317.14l-.23.39L134,312.45l-.56-.58.79.17,20.64,4.41,2.32.5-.2.46-8.66-6.05-1-.73,1.24.27A51.63,51.63,0,0,0,159.69,312,63.53,63.53,0,0,0,170,311a96.79,96.79,0,0,0,16.65-4.49c4.58-1.66,8.15-3.24,10.6-4.34l2.79-1.3.73-.33Z"/><g class="cls-9"><path d="M201,300.51c-16.86,8.45-35.95,14.3-52.53,10.68l8.66,6.05-23-4.92c1.62,1.7,3.24,3.39,4.85,5.09a124.22,124.22,0,0,1-36.22-15.12s18.26,19.08,39.4,20.1C177,324.06,201,300.51,201,300.51Z"/></g><path class="cls-5" d="M84.3,273.63a2.91,2.91,0,0,1-.62-.35c-.39-.25-1-.59-1.71-1.11a40.41,40.41,0,0,1-5.75-4.86,44.59,44.59,0,0,1-11.84-21.62l.51-.06V246c.15,5.36.3,10.43.44,14.94v1.2l-.48-1.1A48.27,48.27,0,0,1,61,246.74c-.16-1.39-.24-2.8-.26-4.2v-1.12a2.41,2.41,0,0,1,0-.38,2.41,2.41,0,0,1,0,.38q0,.44.06,1.11a34.77,34.77,0,0,0,.39,4.18,50.13,50.13,0,0,0,4,14.14l-.45.1c-.15-4.5-.32-9.58-.5-14.93v-.33l.52-.06a44.66,44.66,0,0,0,4.93,12.6A45.73,45.73,0,0,0,82,272c.69.55,1.28.91,1.65,1.2A4.89,4.89,0,0,1,84.3,273.63Z"/><path class="cls-5" d="M222.62,248.86a3.83,3.83,0,0,1,.31-.46l1-1.27c.39-.57.79-1.32,1.3-2.16l.66-1.42.36-.77c.1-.28.21-.56.31-.85,1.81-4.6,2.9-11.45,2.84-19a29.67,29.67,0,0,0-.11-3.15l-.13-2,.64,1.9c.66,2,1.29,3.86,1.89,5.64h-.46a19.74,19.74,0,0,0,1.24-7.14,20.38,20.38,0,0,0-.88-5.65,27.67,27.67,0,0,0-2-4.69,2.14,2.14,0,0,1,.22.28,10.07,10.07,0,0,1,.55.85,18.33,18.33,0,0,1,1.56,3.47,19.93,19.93,0,0,1,1,5.73,19.44,19.44,0,0,1-1.19,7.32l-.24.65-.22-.66-1.92-5.63.5-.1c.07,1.05.1,2.1.11,3.18.06,7.6-1.09,14.51-3,19.13-.12.29-.23.58-.34.85l-.38.78-.71,1.42c-.54.84-1,1.58-1.39,2.13l-1,1.22C222.76,248.74,222.63,248.88,222.62,248.86Z"/><path class="cls-5" d="M178.35,174.54a4.09,4.09,0,0,1-.7,0c-.45,0-1.13,0-2-.06a49.5,49.5,0,0,1-7.28-.95,54.53,54.53,0,0,1-22-9.94l.34-.39.17.18c3.28,3.33,6.4,6.51,9.24,9.41l.55.56-.76-.16a24.14,24.14,0,0,1-8-3.15,24.73,24.73,0,0,1-5.23-4.28,23.29,23.29,0,0,1-2.67-3.5c-.27-.43-.44-.79-.57-1s-.19-.36-.17-.36c.31.42.6.85.87,1.3a27.14,27.14,0,0,0,2.76,3.38,24.59,24.59,0,0,0,5.22,4.14,24.19,24.19,0,0,0,7.91,3l-.21.41-9.27-9.37-.17-.17.34-.39a55.86,55.86,0,0,0,21.73,10,58.54,58.54,0,0,0,7.22,1.11c.86.1,1.53.11,2,.16A3.08,3.08,0,0,1,178.35,174.54Z"/><path class="cls-2" d="M112.26,161.6a.66.66,0,0,1-.24.11l-.71.26c-.62.23-1.57.52-2.74,1a87.47,87.47,0,0,0-55.91,67.57c-.24,1.24-.34,2.21-.45,2.87a3.4,3.4,0,0,1-.13.75,1,1,0,0,1-.06.25v-.26a3.23,3.23,0,0,1,.07-.75c.09-.66.15-1.65.36-2.9A79.82,79.82,0,0,1,54.71,220a85.51,85.51,0,0,1,5.74-14.83A85.48,85.48,0,0,1,98.61,167a80.79,80.79,0,0,1,9.88-4.18c1.19-.44,2.14-.69,2.78-.89l.72-.21A.84.84,0,0,1,112.26,161.6Z"/><path class="cls-2" d="M67,271.06a7.87,7.87,0,0,1-1-1c-.32-.33-.69-.75-1.1-1.26s-.9-1.07-1.36-1.75a38.37,38.37,0,0,1-3-4.92,41.8,41.8,0,0,1-4.34-13.44,39.75,39.75,0,0,1-.37-5.77,17,17,0,0,1,.09-2.22A15.47,15.47,0,0,1,56,239a8.37,8.37,0,0,1,.24-1.4,6.74,6.74,0,0,1,0,1.42c0,.46-.07,1-.07,1.67v2.2a45.33,45.33,0,0,0,.48,5.7,49.63,49.63,0,0,0,1.59,6.82,47.34,47.34,0,0,0,2.67,6.47,41.43,41.43,0,0,0,2.93,4.92c.44.69.91,1.27,1.29,1.79s.73,1,1,1.31A7.7,7.7,0,0,1,67,271.06Z"/><path class="cls-2" d="M75.23,280.44c0,.13-1-.09-2-.79s-1.56-1.54-1.45-1.62.8.54,1.75,1.19S75.28,280.29,75.23,280.44Z"/><path class="cls-2" d="M136.06,151.57a11.54,11.54,0,0,1-4-10.06,26.38,26.38,0,0,0,1.24,5.34A25.9,25.9,0,0,0,136.06,151.57Z"/><g class="cls-9"><path d="M127,262.4c.6-1,1.21-2,1.82-3a1.85,1.85,0,0,0,.45,1.65,5,5,0,0,0,1.42,1.05,3.67,3.67,0,0,0,3.34.46,2.91,2.91,0,0,0,1-3.14c-.19-.92-.61-1.79-.86-2.7a3.55,3.55,0,0,1,.18-2.75,4.39,4.39,0,0,1,2.74-1.59A34.28,34.28,0,0,1,149,251.11a21.24,21.24,0,0,1,11.13,4.17c-.27-1.43-1.54-2.43-2.79-3.18A22.35,22.35,0,0,0,140,249.69a19.84,19.84,0,0,0-12.94,11.64"/></g><path class="cls-2" d="M129.7,257.1a8.05,8.05,0,0,0,2.62,4.36,1.67,1.67,0,0,0,1.74.5c.65-.33.67-1.25.55-2a16.35,16.35,0,0,0-2.28-5.95"/><path class="cls-2" d="M163.3,257.1a8,8,0,0,1-2.61,4.36,1.7,1.7,0,0,1-1.75.5c-.65-.33-.67-1.25-.55-2a16.12,16.12,0,0,1,2.29-5.95"/><path class="cls-5" d="M168,261.6c-.32.24-2.13-2-5.68-4.85a31.69,31.69,0,0,0-6.75-4.06,25.71,25.71,0,0,0-9.21-2.18,21.53,21.53,0,0,0-9.22,1.54,18.13,18.13,0,0,0-6.27,4.36c-3,3.26-3.54,6.22-3.95,6.11-.16,0-.25-.78,0-2.12a13.77,13.77,0,0,1,2.5-5.18,18.15,18.15,0,0,1,6.71-5.36,22.07,22.07,0,0,1,10.32-2,25.52,25.52,0,0,1,10.1,2.6,27.57,27.57,0,0,1,6.92,4.85C167,258.69,168.24,261.43,168,261.6Z"/><g class="cls-9"><path d="M154.64,274.57c.16.3-.69,1.14-2.38,2a18.56,18.56,0,0,1-14.35.57c-1.75-.7-2.66-1.47-2.53-1.79.29-.69,4.46.6,9.66.35S154.29,273.9,154.64,274.57Z"/></g><path class="cls-2" d="M108.38,200.9a121.07,121.07,0,0,0,76.8.67s-4.93,35.07-38.34,37S108.38,200.9,108.38,200.9Z"/><path class="cls-5" d="M133.84,206.9a40.31,40.31,0,0,0,3.88,24,14.79,14.79,0,0,0,3.92,5.43,6.55,6.55,0,0,0,6.33,1.22c2-.83,3.28-2.86,4.2-4.85,4-8.69,4.42-15.78,4.84-25.35C149.67,209.24,141.91,208.89,133.84,206.9Z"/><g class="cls-9"><path d="M180.22,220.13c.13.07-.29,1.23-1.4,3.15a34,34,0,0,1-6,7.3,40.83,40.83,0,0,1-5.07,4.11,42.8,42.8,0,0,1-6.64,3.56,37.85,37.85,0,0,1-33.51-1.59,43.28,43.28,0,0,1-6.27-4.18,41.23,41.23,0,0,1-4.71-4.54,33.43,33.43,0,0,1-5.22-7.83c-.93-2-1.24-3.21-1.1-3.27s.81,1,2,2.77a43.52,43.52,0,0,0,5.69,7.07,45.74,45.74,0,0,0,4.69,4.1,43.36,43.36,0,0,0,6.06,3.75,37.38,37.38,0,0,0,31.48,1.5,44.63,44.63,0,0,0,6.39-3.16,45.34,45.34,0,0,0,5.06-3.64,44.14,44.14,0,0,0,6.33-6.49C179.32,221,180,220,180.22,220.13Z"/></g><g class="cls-9"><path d="M177.65,195.69a4.08,4.08,0,0,0-3,.65,52.57,52.57,0,0,1-29.76,5.1c-10.13-1.26-20.55-4.8-28.29-11.46-2.11,1.12-2.64,4.08-1.73,6.28s2.89,3.75,4.9,5a50.25,50.25,0,0,0,23.17,7.5,76.23,76.23,0,0,0,24.39-2.31c3.92-1,8-2.31,10.59-5.43a5.05,5.05,0,0,0,1.29-2.84A2.52,2.52,0,0,0,177.65,195.69Z"/></g><path class="cls-5" d="M176.34,195.46c.38.53-2.22,3.4-7.75,6.21a41.82,41.82,0,0,1-10.25,3.56A44.32,44.32,0,0,1,132,202.69a42.35,42.35,0,0,1-9.4-5.43c-4.89-3.81-6.9-7.13-6.42-7.57s3.43,1.74,8.44,4.49a52.13,52.13,0,0,0,42.56,4.07C172.64,196.52,175.9,194.82,176.34,195.46Z"/><path class="cls-2" d="M141.19,230.76a4.68,4.68,0,0,1-.56-.63,17.37,17.37,0,0,1-1.26-1.9,24.51,24.51,0,0,1-3.21-14.51,19.29,19.29,0,0,1,.35-2.26c.12-.52.2-.81.24-.8s-.13,1.18-.22,3.09a27.69,27.69,0,0,0,3.16,14.31C140.55,229.74,141.26,230.69,141.19,230.76Z"/><path class="cls-5" d="M193.12,199.5a16,16,0,0,1-3.3,1.47c-1.09.43-2.42.95-4,1.44s-3.35,1.14-5.37,1.64-4.21,1.16-6.62,1.63c-1.2.25-2.43.55-3.72.77l-4,.66a126,126,0,0,1-17.89,1.36,129,129,0,0,1-17.89-1.3c-2.72-.46-5.32-.85-7.7-1.42-1.2-.27-2.36-.51-3.46-.78l-3.16-.86c-2-.52-3.8-1.15-5.37-1.66-.79-.27-1.52-.5-2.19-.74l-1.8-.72a16,16,0,0,1-3.29-1.49c.09-.26,4.91,1.55,12.93,3.54l3.15.75c1.1.25,2.26.45,3.45.69,2.37.52,4.94.84,7.64,1.27a143.44,143.44,0,0,0,17.69,1.16,138.06,138.06,0,0,0,17.71-1.22l3.94-.58c1.28-.19,2.51-.47,3.7-.69,2.39-.41,4.59-1,6.6-1.43s3.81-1,5.4-1.41,2.94-.83,4-1.17A16.1,16.1,0,0,1,193.12,199.5Z"/></g><g id="freepik--Floor--inject-2"><path class="cls-5" d="M455.55,469.76c0,.14-102,.26-227.77.26S0,469.9,0,469.76s102-.26,227.78-.26S455.55,469.62,455.55,469.76Z"/></g><g id="freepik--Lightning--inject-2"><polygon class="cls-6" points="177.25 143.26 171.83 118.87 184.75 117.54 188.95 95.77 190.82 122.66 177.7 123.97 177.25 143.26"/><polygon class="cls-6" points="184.57 146.47 192.93 129.01 201.45 134.38 214.41 123.11 202.7 140.4 194.07 134.92 184.57 146.47"/><polygon class="cls-10" points="177.25 143.26 171.83 118.87 184.75 117.54 188.95 95.77 190.82 122.66 177.7 123.97 177.25 143.26"/><polygon class="cls-10" points="184.57 146.47 192.93 129.01 201.45 134.38 214.41 123.11 202.7 140.4 194.07 134.92 184.57 146.47"/></g></g></g></svg>