<svg xmlns="http://www.w3.org/2000/svg" viewBox="0 0 199.35 211.33"><defs><style>.cls-1,.cls-2{fill:#d66853;}.cls-2{opacity:0.3;}</style></defs><title>bm-logo</title><g id="Layer_2" data-name="Layer 2"><g id="Layer_1-2" data-name="Layer 1"><path class="cls-1" d="M82.43,113.19a27.21,27.21,0,0,0-14-9.07,23.18,23.18,0,0,0,11.09-9.93,27.87,27.87,0,0,0,3.7-13.85A29,29,0,0,0,79.46,66.1a26.2,26.2,0,0,0-2.61-3.81,24.41,24.41,0,0,0-7.4-6A20.39,20.39,0,0,0,59.74,54H0v103H50.6a64.48,64.48,0,0,0,14.29-1.52,37.35,37.35,0,0,0,11.81-4.71,23.75,23.75,0,0,0,6.24-5.62,24.12,24.12,0,0,0,1.74-2.57,23.53,23.53,0,0,0,2.9-12Q87.58,119.64,82.43,113.19ZM28.27,78H48.43a7,7,0,0,1,4.26,1.42c.17.14.36.25.52.4,1.36,1.21,2,3.21,2,6,0,3.19-.79,5.32-2.39,6.38a9.28,9.28,0,0,1-5.29,1.6H28.27Zm22.33,55.1H28.27V115.87H51.62a6.41,6.41,0,0,1,5.22,2.54,9.78,9.78,0,0,1,2,6.3A8,8,0,0,1,56.48,131c-.23.2-.46.39-.7.56A8.51,8.51,0,0,1,50.6,133.12Z"/><path class="cls-2" d="M199.35,0H.43V47.44H116.91L79.46,66.1a29,29,0,0,1,3.77,14.25,27.83,27.83,0,0,1-3.7,13.84,23.25,23.25,0,0,1-11.09,9.94,27.19,27.19,0,0,1,14,9.06q5.14,6.45,5.15,17.33a23.49,23.49,0,0,1-2.9,12,24.12,24.12,0,0,1-1.74,2.57l34,19.28H.43v47H199.35V158.22l-91.92-53.51,91.92-47.38Z"/></g></g></svg>