<svg xmlns="http://www.w3.org/2000/svg" width="336.427" height="504.568" viewBox="0 0 336.427 504.568"><defs><style>.a{fill:#050303;}.b{fill:#050201;}.c{fill:#0b0605;}.d{fill:#0c0807;}.e{fill:#120c0a;}.f{fill:#fbcda3;}.g{fill:#facda3;}.h{fill:#d66853;}.i{fill:#a54b39;}.j{fill:#f9cca2;}.k{fill:#0c0503;}.l{fill:#c39164;}.m{fill:#bf8f64;}.n{fill:#bf9168;}.o{fill:#edc59e;}.p{fill:#f0c79e;}.q{fill:#d1ad8a;}.r{fill:#170e0c;}.s{fill:#cfac89;}.t{fill:#b29374;}.u{fill:#c6a482;}.v{fill:#84451b;}.w{fill:#250a04;}.x{fill:#230a05;}.y{fill:#060403;}.z{fill:#c08f64;}.aa{fill:#18100a;}.ab{fill:#1e0f06;}.ac{fill:#c59366;}.ad{fill:#bd8e65;}.ae{fill:#19110a;}.af{fill:#2d2116;}.ag{fill:#2b1f14;}.ah{fill:#241a11;}.ai{fill:#6c5541;}.aj{fill:#6e5943;}.ak{fill:#6b5641;}.al{fill:#6b5541;}.am{fill:#68523e;}.an{fill:#68533e;}.ao{fill:#634e3a;}.ap{fill:#5f4b39;}.aq{fill:#3b1406;}.ar{fill:#240800;}.as{fill:#160603;}.at{fill:#160702;}.au{fill:#1f0904;}.av{fill:#391b0c;}</style></defs><g transform="translate(-725.273 -293.524)"><path class="a" d="M1058.062,709.108c-2.062-15.71-9.751-26.924-21.058-36.781-4.563-3.964-8.261-4.523-13.448-.492-7.024,5.454-14.366,10.735-23.172,14.207-2.448-8.686-4.736-16.734-6.97-24.809-.678-2.488-1.37-4.909,0-7.529,4.5-8.58,1.7-16.388-3.046-23.771-10.589-16.428-26.3-25.421-44.669-30.569-3.193-.891-5.707.08-8.234,1.636-4.031,2.461-7.675.372-8.833-2.74-1.264-3.445-.452-7.835,4.563-9.125.944-.239,1.9-.426,2.833-.718,18.171-5.733,37.007-10.057,51.4-23.917a3.984,3.984,0,0,1,3.445-1.117c13.688,1.144,19.341-1.743,24.077-14.26,2.607-6.93,6.718-11.121,13.222-14.327,10.416-5.135,19.076-12.517,22.428-24.29,2.488-8.726,2.714-17.586-3.791-24.809-6.624-7.369-15.351-7.516-24.3-5.241-3.671.931-7.276,2.1-10.682,3.113-1.41-1.423-1.078-2.754-.772-3.964,4.669-17.679,6.225-35.756,6.625-53.927.426-19.2-.984-38.111-7.729-56.468-19.94-54.287-94.539-89.817-153.761-70.249-40.027,13.236-70.968,36.116-84.137,77.9-7.662,24.317-5.853,49.418-3.565,74.32,1,10.762,3.259,21.39,5.015,32.511-5.627-1.543-10.216-3.232-14.965-4.017-16.841-2.753-27.895,7.782-25.993,24.769,1.516,13.422,9.524,22.627,20.885,28.706,7.995,4.27,14.18,8.952,17.2,18.264,2.434,7.463,9.072,15.324,17.027,13.315,7.9-2.009,10.828,2.288,15.644,5.254a122.217,122.217,0,0,0,15.391,8.247,170.684,170.684,0,0,0,31.274,10.456c4.23.944,5.786,3.578,6.385,7.383.665,4.2-2.94,4.589-5.308,5.8-6.359,3.232-12.677,6.6-19.3,9.179-21.031,8.168-33.482,23.6-39.188,45.042-1.423,5.321-3.046,10.575-4.563,15.87,4.882-1.516,3.765-6.571,5.68-9.95,1.623,2.075.7,4.363,1.038,6.452,3.193-8.793,6.172-17.665,9.657-26.338,2.847-7.077,9.1-10.642,14.792-15.431,12.078-10.176,26.791-14.353,39.787-22.108,4.882-2.913,3.365-7.755,3.3-11.413,3.419-1.277,4.576.931,6.332,1.5,6.239-1.676,12.025,1.41,18.091,1.729,9.072.466,17.865-1.556,26.817-2,2.315-2.315,5.214-1.783,8.873-1.743.293,3.538-1.889,7.835,1.517,10.6,2.727,2.195,5.826,3.937,8.766,5.88.745,1.969,2.341,2.581,4.257,2.687,2.621-1.171,2.355-5.547,6.518-5.507,3.765,4.35-1.636,10.07,2.235,16.136,1.144-3.578,3.365-5.228,3.153-8.207-.545-7.942,3.751-6.6,8.5-4.443,13.927,6.292,24.769,15.883,31.673,29.677.386-1.064.758-3.206,1.849-2.461a6.336,6.336,0,0,1,2.421,5.933c-1.038,8.447-2.3,16.881-3.485,25.327q1.9,8.64,3.778,17.293c2.288,2.315,1.6,5.175,1.437,7.928,2.993-2.394,4.43-9.764,10.243-3.219,7.463-2.607,13.382-7.808,19.82-12.078,3.844-2.554,6.013-2.368,9.857.931,10.123,8.66,15.67,19.568,18.982,32.032,5.161,11.041,6.318,22.082.053,33.136l-.452-.16c.838,2.3-1.41,3.844-1.45,5.933,2.168,1.716,1.583,4.257,1.916,6.518a12.43,12.43,0,0,0,4.084-8.021A147.4,147.4,0,0,0,1058.062,709.108ZM909.383,588.736c-27.642,7.768-51.094-5.294-76.009-11.36-8.766-2.128-16.987-6.146-24.742-10.881-7.01-4.283-11.48-10.243-12.158-18.676-2.7.931-3.552,3.126-4.363,5.64-1.024,3.206-1.942,7.489-6.931,5.228-4.044-1.822-8.221-4.057-4.762-9.83.426-.718.186-1.862.253-2.807-4-.133-5.614-3.219-7.476-6.013-5.308-5.241-11.626-9.032-18.025-12.81-9.019-5.308-15.577-12.77-16.721-23.7-1.33-12.624,6.279-19.993,18.8-18.038a45.775,45.775,0,0,1,27.11,14.633c-1.809-12.225-6.292-23.6-8.088-35.6-3.991-26.445-6.438-53.116-.173-79.295,10.19-42.594,40.106-66.312,80-79.973,53.169-18.2,109.371,9.6,132.8,39.534,13.182,16.841,20.831,35.8,22.135,57.12,1.942,31.952-.067,63.465-11.227,94.153,2.78,2.461,4.882.106,7.05-1.689a40.967,40.967,0,0,1,21.217-8.966c11.4-1.5,18.064,4.669,17.958,16.069-.093,9.924-5.188,17.08-12.611,23.013-5.84,4.656-12.89,7.21-19.129,11.147-3.525,6.731-3.711,15.324-11.094,19.9-8.181,6.013-8.181,6.013-12.664-7.516-4.7,3.3-3.711,10.362-8.859,13.209-2.195,3.911-6.159,5.64-9.83,7.489C952.07,578.679,930.507,582.8,909.383,588.736Z" transform="translate(2.33 0)"/><path class="b" d="M983.4,608.266c3-2.4,4.431-9.765,10.237-3.216-8.625,10.541-20.4,16.249-32.588,21.385-15.553,6.554-30.583,13.82-37.907,30.6A30.117,30.117,0,0,1,911.048,667.1c-7.068,3.529-14.731,6-20.966,11.114-6.6,4.815-12.523,4.657-19.387-.508-5.434-4.09-11.83-7.564-19.228-7.509L839.624,660.9c-6.678-8.506-10.9-19.232-21.222-24.463-8.875-4.5-17.933-8.648-26.989-12.778-9.551-4.355-19.146-8.568-24.044-18.827.886-2.861,5.2-1.627,5.786-4.842-.484-4.81,1.459-9.026,3.256-13.277,4.887-1.511,3.763-6.573,5.691-9.946,1.622,2.075.7,4.357,1.034,6.449-3.674,6.581-3.5,14.174-5.564,21.177-.339,2.312.025,3.834,2.229,5.646,5.833,4.793,12.846,6.73,19.478,9.723,13.668,6.167,29.5,9.876,37.2,24.436,8.547,16.158,24.688,20.172,39.423,26.836-2.6-6.91-8.2-10.1-14.988-11.827-10.2-5.493-13.957-15.478-17.735-25.449.5-10.176,2.542-12.943,11.953-16.17,5.206-1.785,10.545-3.255,15.593-5.406,4-1.7,3.987-2.53,1.954-6.007a25.237,25.237,0,0,1-15.871-.535c-4.253-1.5-8.694-1.086-13.089-1.071-2.418-.146-4.072-1.124-4.144-3.819,5.418-2.981,11.143-2.6,16.814-1.209,7.823,1.927,15.211,1.519,22.083-3.05,4.71-.881,9.333,4.309,13.753.958,5.226-3.963,7.518,2.671,11.016,2.333,4.73-.455,9.419-1.337,14.215-1.137,13.829,5.357,21.568,5.443,26.273-3.21,5.294-9.733,13.072-16.544,20.521-24,3.792-.893,7.461-2.1,10.152-5.1,1.286-1.435,2.677-3.178-.439-4.3l-2.158-.458c-.847-4.511,4.592-4.225,5.592-7.326.392-1.07.757-3.2,1.857-2.46a6.33,6.33,0,0,1,2.416,5.926c-1.042,8.458-2.3,16.886-3.481,25.326-5.669-11.252-11.191-9.829-21.439,5.522,1.531,2.885,6.889.246,7.367,5.628-10.268-.992-16.172,6.794-23.509,11.574-5.281,3.44-9.86,5.207-15.945,1.91-4.819-2.61-10.3-4.216-15.944-2.917-7.155,1.645-14.334,2.546-21.8.976.362,5.685,4.341,6.272,7.513,7.432,4.855,1.774,9.991,2.817,14.76,4.777,5.689,2.336,10.651,6.445,9.242,13.095-2.009,9.477-5.554,18.332-14,24.7-4.6,3.467-10.386,4.681-14.437,8.819-3.028,1.334-5.4,3.066-4.547,8.178l27.678-13.873c4.976-1.951,6.8-6.825,9.3-10.776a52.422,52.422,0,0,1,23.436-20.56C958.67,621.755,971.794,616.434,983.4,608.266Zm-90.971,25.225c.043-7.125,9.125-3.417,10.538-8.494-6.7-5.719-16.307-5.606-22.622-12.688-5.566,8.362-17.519,5.651-23.2,14.009l11.463,5.294c-5.5,5.032-12.419.419-18.954,2.953,4.637,10.1,14.1,14.64,22.692,19.818,2.744,1.652,6.1,5.443,9.108,3.935a108.141,108.141,0,0,0,27.812-19.775c1.358-1.345,3.063-3.481.888-6.406C904.422,632.337,898.55,635.606,892.429,633.491Z" transform="translate(13.901 85.235)"/><path class="c" d="M1035.159,636.739c2.167,1.723,1.591,4.255,1.922,6.521-1.155,1.468-2.039,3.326-3.505,4.347-18.21,12.69-31.939,32.2-55.883,36.243a31.813,31.813,0,0,1-16.108-1.054c-23.693-7.949-47.787-14.377-72.741-16.833-30.95-3.046-60.3,5.108-89.608,13.339-3.066.861-6.158,1.627-9.237,2.436-2.524-.281-5.345.106-6.617-2.966,12.042-3.173,24.118-6.517,35.955-10.1a203.743,203.743,0,0,1,68.7-8.69c6.155.27,12.035,2.738,18.272,1.937,16.539,4.208,33.617,7,49.464,13.023,15.792,6.006,28.918,2.453,42.1-5.371,3.458-2.053,7.486-4.161,7.62-9.205,1.413-3.553,6.607-.664,7.8-4.581C1020.737,649.618,1031.2,646.906,1035.159,636.739Z" transform="translate(19.189 113.338)"/><path class="d" d="M802.572,694.806c1.272,3.073,4.093,2.686,6.617,2.966-5.139,3.743-10.7,3.409-16.577,2.146-6.359-1.367-12.963-2.634-18.15-6.364-14.047-10.1-27.855-20.579-41.248-31.53-7.424-6.07-6.72-15.788-7.49-24.214-1.622-17.768.843-34.857,12.129-49.623,2.1.921,2.655,2.776,2.917,4.81-8.489,13.511-10.986,28.336-9.641,44-.853,5.228,2.162,9.685,2.936,14.6.911,5.787,4.275,9.625,10.106,11.066,3.073,4.3,8.352,5.631,12.12,9,1.072,4.126,6.531,1.185,7.867,4.885.005,3.811,2.972,5.473,5.512,7.3C779.488,690.9,790.381,694.83,802.572,694.806Z" transform="translate(0 97.305)"/><path class="e" d="M737.647,597.114c-.262-2.034-.818-3.89-2.917-4.81a63.136,63.136,0,0,1,4.4-6.146c12.331-13.58,13.9-13.648,28.174-1.72a4.174,4.174,0,0,0-2.647,4.16c-13.442-7.517-13.522-7.489-23.717,5.112C739.95,594.932,738.75,595.983,737.647,597.114Z" transform="translate(3.123 93.189)"/><path class="a" d="M757.227,586.434a4.174,4.174,0,0,1,2.647-4.16c6.051,1.421,9.595,8.331,16.63,7.6-.589,3.215-4.9,1.981-5.786,4.842C765.518,593.1,761.271,589.933,757.227,586.434Z" transform="translate(10.552 95.353)"/><path class="f" d="M845.155,340.777c-3.086-.266-5,1.237-5.241,4.337-.279,3.445,1.33,5.667,4.975,5.6,2.993-.053,4.656-1.876,5.042-4.855C849.691,342.893,848.188,341.03,845.155,340.777Zm-22.068,138.5a28.614,28.614,0,0,0-3.445-5.747A37.986,37.986,0,0,1,823.086,479.281Zm-6.718-17.945-.545-.16a2.719,2.719,0,0,0-3.126,1.1c-1.277,2.155,1.184,5.241,3.259,6.864C812.631,465.42,813.575,463.105,816.369,461.336Z" transform="translate(28.754 15.594)"/><path class="f" d="M1026.584,483.932a40.967,40.967,0,0,0-21.217,8.966c-2.168,1.8-4.27,4.15-7.05,1.689,11.161-30.688,13.169-62.2,11.227-94.153-1.3-21.323-8.953-40.279-22.135-57.12-23.425-29.93-79.627-57.732-132.8-39.534-39.893,13.661-69.81,37.379-80,79.973-6.265,26.179-3.818,52.85.173,79.295,1.8,12,6.279,23.372,8.088,35.6a45.775,45.775,0,0,0-27.11-14.633c-12.517-1.955-20.126,5.414-18.8,18.038,1.144,10.934,7.7,18.4,16.721,23.7,6.4,3.778,12.717,7.569,18.025,12.81.359-10.748-7.143-16.681-14.1-22.933-4.43-3.977-8.673-7.968-3.685-14.34,7.835-5.72,14.646-5.64,22.042,1.543a55.278,55.278,0,0,1,17.24,35.57,10.8,10.8,0,0,1,1.782,7.941c.678,8.434,5.148,14.393,12.158,18.676,7.755,4.736,15.976,8.753,24.742,10.881,24.915,6.066,48.367,19.129,76.009,11.36,21.124-5.933,42.687-10.057,62.454-20.02,3.671-1.849,7.635-3.578,9.83-7.489.532-4.549,3.365-8.513,2.527-13.608-.306-1.929-.452-7.569,5.175-6.851.9-13.475,6.531-25.008,15.338-34.879,6.744-7.569,19.434-7.715,25.713-1.051,5.427,6.119-1.437,8.713-4.11,11.254-5.121,4.855-10.668,9.139-13.542,15.856.093,1.4.186,2.793,1.516,3.685,6.239-3.937,13.289-6.491,19.129-11.147,7.423-5.933,12.517-13.089,12.61-23.013C1044.648,488.6,1037.984,482.429,1026.584,483.932Zm-115-172.716c3.219.253,5.52,1.982,5.48,5.268a5.154,5.154,0,0,1-5.507,5.348,4.8,4.8,0,0,1-5.068-4.682C906.225,313.849,908.34,311.96,911.586,311.215Zm5.374,27.443c.013,2.7-1.609,4.855-5.361,5a4.793,4.793,0,0,1-5.068-5.161c-.013-2.833,1.823-4.749,4.842-4.962C914.991,333.284,916.947,335.426,916.96,338.658ZM890.329,311.3c3.339-.186,5.188,1.916,5.853,5.2-.372,3.193-1.982,5.441-5.414,5.334a5.132,5.132,0,0,1-5.294-5.56A4.874,4.874,0,0,1,890.329,311.3Zm1.41,32.338c-4.15.013-5.92-1.862-6.079-4.669-.2-3.3,1.583-5.467,5.2-5.427,3.033.027,4.909,1.743,5.135,4.629A4.8,4.8,0,0,1,891.739,343.633ZM896,360.953c-.266,2.953-2.341,4.523-5.321,4.5s-5.095-1.57-5.161-4.589c-.08-3.339,1.929-5.281,4.948-5.72C894.173,355.7,896.288,357.494,896,360.953Zm-26.538-49.431c3.405-.106,4.988,2.128,5.494,4.722-.372,3.525-2.035,5.4-4.882,5.507-3.405.133-5.228-1.929-5.268-5.321C864.775,313.37,866.571,311.615,869.458,311.521Zm5.414,27.176c-.386,2.98-2.049,4.8-5.042,4.855-3.645.067-5.254-2.155-4.975-5.6.239-3.1,2.155-4.6,5.241-4.337C873.129,333.869,874.632,335.731,874.872,338.7Zm-51.4,161.609c9.272,1.955,18.41.718,27.509-.319C840.485,509.9,833.089,509.978,823.472,500.307Zm34.865-5.786c-3.086,1.357-7.808,5.028-9.95-.279-.106-.279-.24-.559-.359-.838a37.987,37.987,0,0,0-3.445-5.747c-.053-.067-.093-.133-.146-.2-1.1-1.437-2.3-2.807-3.538-4.19-2.075-1.623-4.536-4.709-3.259-6.864a2.719,2.719,0,0,1,3.126-1.1l.545.16,4.057,1.184a4.671,4.671,0,0,1,.812.319,60.6,60.6,0,0,1,5.64,3.139c.306.186.6.386.891.585s.572.386.851.585c.559.386,1.091.785,1.609,1.211a28.617,28.617,0,0,1,4.15,4.07C861.862,489.625,862.115,492.871,858.337,494.521Zm-6.731-18.65c-2.328-2.022-5.015-2.288-7.9-1.636-9.724-1.729-18.823,2.354-29.85,4.217a105.949,105.949,0,0,1,18.158-15.524c14.207-9.471,21.244-8.54,33.788,4.6C861.25,470.7,858.816,477.134,851.606,475.871Zm13.249-116.634c.239-3.1,2.155-4.6,5.241-4.337,3.033.253,4.536,2.115,4.776,5.082-.386,2.98-2.049,4.8-5.042,4.855C866.185,364.9,864.576,362.682,864.855,359.237Zm12.371,188.932h27.443C893.907,555.6,886.817,555.538,877.226,548.169ZM906.212,520.7c-8.46,8.873-29.571,8.114-36.994-1.277-4.244-5.387-2.554-8.061,3.831-8.726,3.405,4.9,7.848,4.563,12.863,2.9,7.01-2.328,13.967-.053,20.658,1.5C912.477,516.469,909.644,519,906.212,520.7Zm5.84-155.237c-2.993.106-5.095-1.423-5.467-4.35-.439-3.5,1.689-5.308,4.9-5.906,3.671.093,5.507,2.288,5.574,5.494C917.133,363.68,915.045,365.356,912.052,365.462ZM929.384,499c10.216,2.168,19.368,2.94,29.4.865C949.218,510.217,939.281,510,929.384,499Z" transform="translate(3.812 1.472)"/><path class="g" d="M841.185,615.568c4.4-.015,8.837-.424,13.089,1.071a25.237,25.237,0,0,0,15.871.535c-2.219,4.943-7.2,4.914-11.364,5.966-5.028,1.269-9.983,2.61-13.981,5.985-4.922,4.154-8.367,8.941-4.156,15.633,3.778,9.97,7.532,19.956,17.735,25.448-8.342,1.635-13-3.357-16.283-9.75-2.84-5.536-5.982-10.688-10.723-14.746-5.262-4.5-9.667-9.4-8.523-18.148-3.923,8.569-9.341,5.685-14.535,3.307-11.121-5.095-22.187-10.311-33.276-15.476,2.066-7,1.89-14.6,5.564-21.177,3.2-8.79,6.17-17.671,9.66-26.343,2.845-7.069,9.1-10.639,14.781-15.424,12.088-10.177,26.8-14.354,39.8-22.108,4.879-2.911,3.367-7.758,3.292-11.413,3.42-1.273,4.58.923,6.341,1.5,2.694,9.58,8.942,17.089,14.994,24.537,5.261,6.472,13.1,6.114,18.013-.8,5.184-7.3,10.36-14.8,11.892-24,2.321-2.312,5.222-1.776,8.874-1.745.3,3.545-1.893,7.846,1.518,10.606,2.724,2.2,5.829,3.937,8.766,5.881-26.731,33.828-62.946,52.43-104.5,65.882,2.687-6.853,5.637-11.9,4.125-18.458-4.367,13.507-14.291,19.827-27.8,22.706,10.081-2.134,16.94,2.8,23.044,8.49C822.345,621.853,831.4,622,841.185,615.568Z" transform="translate(16.434 74.24)"/><path class="h" d="M884.472,647.2c7.324-16.777,22.354-24.043,37.907-30.6,12.188-5.136,23.963-10.844,32.588-21.385,7.468-2.607,13.381-7.806,19.823-12.084,3.846-2.554,6.009-2.36,9.857.935,10.118,8.661,15.665,19.574,18.984,32.029.946,11.048,1.542,22.094.06,33.145l-.464-.168c-5.979,5.7-12.309,6.658-20.287,3.533-13.555-5.309-28.036-6.759-42.5-7.307-16.732-.633-33.508-1.01-49.625,4.8C887.529,651.3,885.128,651.367,884.472,647.2Z" transform="translate(52.571 95.062)"/><path class="h" d="M865.46,604.077c-6.872,4.569-14.26,4.978-22.083,3.05-5.671-1.4-11.4-1.772-16.814,1.209-13.065,3.163-14.319,2.82-19.8-5.567,20.355-6.561,40.092-14.5,58.27-25.765,18.336-11.363,35.823-23.8,47.271-42.827,2.623-1.167,2.36-5.543,6.519-5.5,3.759,4.339-1.635,10.068,2.24,16.128,1.139-3.572,3.358-5.221,3.154-8.2-.547-7.945,3.743-6.6,8.491-4.448,13.93,6.3,24.767,15.891,31.673,29.683-1,3.1-6.44,2.815-5.592,7.326l.164-.1c-10-2.033-16.64,3.717-23.071,9.954q-.158,1.016-.318,2.034a3.917,3.917,0,0,0-.134,1.575q-.82.016-1.643.06c-9.471,5.169-17.841,11.6-23.864,20.747-.319.486-1.067.689-1.615,1.024-3.6-2.941-.164-5.358.906-7.552a173.887,173.887,0,0,0,8.944-21.85C899.353,584.846,883.39,596.3,865.46,604.077Z" transform="translate(26.912 77.653)"/><path class="i" d="M892.906,631.423c.656,4.162,3.057,4.09,6.341,2.905,16.117-5.812,32.894-5.435,49.625-4.8,14.465.548,28.946,2,42.5,7.307,7.979,3.125,14.308,2.163,20.287-3.533.839,2.3-1.4,3.85-1.45,5.934-3.963,10.167-14.422,12.879-21.868,19.05-10.8.285-20.414-7.475-31.987-3.585q12.092,4.082,24.182,8.166c-.133,5.044-4.161,7.153-7.62,9.205-13.178,7.824-26.3,11.377-42.1,5.371-15.847-6.027-32.926-8.815-49.464-13.023-3.586-6.186-9.641-3.733-14.557-3.54-6.731.263-9.453-1.442-6.956-8.275,6.235-5.111,13.9-7.585,20.966-11.114A30.117,30.117,0,0,0,892.906,631.423Zm1.149,13.683c27.2-5.195,54.575-4.958,81.991-4.2C948.246,633.007,920.789,632.584,894.055,645.105Z" transform="translate(44.138 110.844)"/><path class="j" d="M860.322,658.593c4.05-4.138,9.837-5.353,14.437-8.819,8.444-6.365,11.989-15.22,14-24.7,1.409-6.65-3.553-10.759-9.242-13.095-4.769-1.959-9.9-3-14.76-4.777-3.173-1.16-7.151-1.747-7.513-7.432,7.464,1.57,14.643.669,21.8-.976,5.644-1.3,11.125.307,15.944,2.917,6.086,3.3,10.664,1.53,15.945-1.91,7.337-4.781,13.241-12.567,23.509-11.574-.478-5.382-5.836-2.743-7.367-5.628,10.248-15.351,15.77-16.774,21.439-5.522q1.889,8.648,3.776,17.294c.049,4.069-2.09,6.369-5.732,7.969-8.275,3.64-16.541,7.339-24.592,11.443-5.962,3.038-11.456,5.8-16.4-3.07,4.073,8.148-1.391,11.62-5.531,15.521A51.666,51.666,0,0,0,888.678,641.8a25.414,25.414,0,0,1-6.787,9.265q-7.993,3.979-15.987,7.959C863.952,660,861.973,661.457,860.322,658.593Z" transform="translate(43.579 91.198)"/><path class="k" d="M918.985,533.479c-11.448,19.028-28.935,31.464-47.271,42.827-18.179,11.267-37.915,19.2-58.271,25.765,5.477,8.387,6.73,8.73,19.8,5.567.072,2.7,1.725,3.673,4.144,3.819-9.785,6.434-18.84,6.285-27.786-2.049-6.1-5.685-12.963-10.623-23.044-8.49,13.507-2.879,23.431-9.2,27.8-22.706,1.512,6.555-1.438,11.6-4.125,18.458,41.557-13.453,77.773-32.054,104.5-65.882C915.469,532.76,917.069,533.37,918.985,533.479Z" transform="translate(20.236 78.351)"/><path class="l" d="M879.654,519.764c-1.532,9.2-6.708,16.705-11.892,24-4.914,6.919-12.751,7.276-18.013.8-6.053-7.448-12.3-14.957-14.994-24.537,6.225-1.681,12.012,1.41,18.089,1.723C861.917,522.224,870.707,520.2,879.654,519.764Z" transform="translate(36.154 74.635)"/><path class="m" d="M773.743,483.637c.266,3.538,3.379,6.611,1.756,10.469-4-.133-5.614-3.219-7.476-6.013.359-10.748-7.143-16.681-14.1-22.933-4.43-3.977-8.673-7.968-3.685-14.34,1.769.652,3.645,2.049,5.294,1.836,10.336-1.344,15.045,5.64,19.661,12.81,1.7,2.674,3.538,4.855-.865,7.689C770.751,475.442,769.74,479.9,773.743,483.637Z" transform="translate(7.501 51.943)"/><path class="n" d="M875.772,644.94a25.414,25.414,0,0,0,6.787-9.265,51.665,51.665,0,0,1,11.359-15.565c4.14-3.9,9.6-7.374,5.531-15.521,4.939,8.869,10.433,6.108,16.4,3.07,8.051-4.1,16.317-7.8,24.592-11.443,3.642-1.6,5.781-3.9,5.732-7.969,2.284,2.316,1.587,5.172,1.435,7.929-11.606,8.168-24.73,13.489-37.528,19.259A52.421,52.421,0,0,0,886.639,636c-2.509,3.951-4.329,8.825-9.3,10.776Z" transform="translate(49.698 97.325)"/><path class="o" d="M941.293,497.094c-8.181,6.013-8.181,6.013-12.664-7.516-4.7,3.3-3.711,10.362-8.859,13.209.532-4.549,3.365-8.513,2.527-13.608-.306-1.929-.452-7.569,5.175-6.851a24.055,24.055,0,0,1,2.142-1.9c3.9-2.754,3.538-11.014,9.671-9.817,6.359,1.264,1.184,8.567,3.977,12.3C941.293,487.463,932.753,491.095,941.293,497.094Z" transform="translate(64.228 58.439)"/><path class="p" d="M784.909,489.456c-2.7.931-3.552,3.126-4.363,5.64-1.024,3.206-1.942,7.489-6.93,5.228-4.044-1.822-8.221-4.057-4.762-9.83.426-.718.186-1.862.253-2.807,1.623-3.858-1.49-6.93-1.756-10.469.053-2.953.027-6.225,3.725-6.891,3.06-.545,4.283,2.3,5.866,4.337,1.876,2.434,2.195,6.319,6.186,6.851A10.8,10.8,0,0,1,784.909,489.456Z" transform="translate(13.895 58.362)"/><path class="q" d="M947.969,476.445c-3.525,6.731-3.711,15.324-11.094,19.9-8.54-6,0-9.631,1.969-14.18,1.2.16,1.623-.692,2.062-1.543,3.844-1.211,2.7-5.946,5.547-7.862C946.546,474.157,946.639,475.553,947.969,476.445Z" transform="translate(68.646 59.188)"/><path class="r" d="M974.11,640.632c1.482-11.052.886-22.1-.06-33.145C979.209,618.527,980.369,629.573,974.11,640.632Z" transform="translate(82.152 103.679)"/><path class="h" d="M766.41,586.67c4.044,3.5,8.291,6.67,13.491,8.285,4.9,10.259,14.493,14.472,24.044,18.827,9.056,4.13,18.114,8.279,26.989,12.778,10.324,5.23,14.545,15.957,21.223,24.463-1.913,3.224-5.052,1.54-7.677,1.914a116.557,116.557,0,0,0-65.144-8.515c-8.273,1.219-16.636,1.857-24.968,2.635-9.292.87-16.358-5.386-24.608-7.868-1.345-15.666,1.152-30.491,9.641-44,1.1-1.131,2.3-2.182,3.292-3.4C752.889,579.181,752.969,579.153,766.41,586.67Z" transform="translate(1.369 95.116)"/><path class="i" d="M899.292,650.016c-2.5,6.833.225,8.539,6.956,8.275,4.915-.193,10.97-2.646,14.557,3.54-6.237.8-12.117-1.667-18.272-1.937a203.742,203.742,0,0,0-68.7,8.69c-11.836,3.578-23.912,6.922-35.955,10.1-12.191.024-23.085-3.911-32.9-10.96-2.541-1.824-5.507-3.485-5.512-7.3,7.617-2.658,15.693-4.215,23.413-8.962-5.329-2.187-9.282-.716-13.366.346-5.9,1.535-11.593,4.188-17.914,3.731-3.767-3.366-9.047-4.694-12.12-9,2.7-1.018,1.514-5.082,4.563-5.829a35.622,35.622,0,0,0,29.113-1.955c9.652-.563,19.533-2.66,28.894-1.266,9.878,1.471,20.055-.458,29.687,3.1a4.974,4.974,0,0,0,6.049-1.929c6.349,1.838,12.681,3.739,19.058,5.478,1.743.475,3.006-.617,3.835-2.143,7.4-.055,13.794,3.419,19.228,7.509C886.77,654.673,892.694,654.831,899.292,650.016Z" transform="translate(4.691 113.432)"/><path class="h" d="M872,613.637c6.122,2.115,11.993-1.155,17.729-1.354,2.175,2.925.47,5.061-.888,6.406a108.141,108.141,0,0,1-27.812,19.775c-3.009,1.508-6.364-2.283-9.108-3.935-8.595-5.177-18.055-9.721-22.692-19.818,6.535-2.534,13.459,2.079,18.954-2.953l.928.188.946-.068c5.947,6.523,12.646,4.93,19.488,1.806Z" transform="translate(34.329 105.089)"/><path class="i" d="M850.89,592.563c17.93-7.774,33.893-19.231,52.7-29.023a173.9,173.9,0,0,1-8.944,21.85c-1.069,2.193-4.505,4.611-.906,7.552-.873,1.5-2.335,1.717-3.868,1.775-4.8-.2-9.485.682-14.215,1.137-3.5.338-5.789-6.3-11.016-2.333C860.223,596.871,855.6,591.682,850.89,592.563Z" transform="translate(41.482 89.166)"/><path class="s" d="M775.066,591.3c11.089,5.165,22.155,10.381,33.276,15.476,5.194,2.378,10.612,5.262,14.535-3.307-1.144,8.745,3.26,13.646,8.523,18.148,4.741,4.057,7.883,9.209,10.723,14.746,3.28,6.393,7.941,11.385,16.283,9.75,6.788,1.728,12.384,4.917,14.988,11.827-14.735-6.664-30.876-10.678-39.423-26.836-7.7-14.561-23.529-18.269-37.2-24.436-6.632-2.993-13.645-4.93-19.478-9.723C775.092,595.133,774.727,593.611,775.066,591.3Z" transform="translate(16.407 98.333)"/><path class="i" d="M880.2,594.223c1.534-.057,3-.275,3.868-1.774.548-.335,1.3-.539,1.615-1.024,6.023-9.148,14.393-15.578,23.864-20.747l1.7,2.01c3.445-1.64,7.224-2.694,9.915-5.656q.958-.972,1.914-1.942l3.9-.056.013,1.978c-7.449,7.459-15.227,14.269-20.521,24C901.764,599.667,894.025,599.58,880.2,594.223Z" transform="translate(51.159 89.659)"/><path class="i" d="M848.2,616.671l-.946.068-.928-.188-11.463-5.294c5.677-8.358,17.631-5.647,23.2-14.009,6.315,7.082,15.92,6.969,22.622,12.688-1.413,5.076-10.5,1.369-10.538,8.493l-2.456.048C861.5,614.5,854.675,617.479,848.2,616.671Z" transform="translate(36.189 100.297)"/><path class="i" d="M837.423,643.07c-.829,1.526-2.093,2.618-3.835,2.143-6.377-1.739-12.709-3.639-19.058-5.478-1-1.846-2.764-2.312-4.633-2.6,2.365-2.167,5.32-1.064,8.007-1.445,2.625-.374,5.764,1.31,7.677-1.914Z" transform="translate(27.945 112.361)"/><path class="t" d="M824.828,620.222c-4.211-6.692-.766-11.479,4.156-15.633,4-3.375,8.952-4.716,13.981-5.985,4.168-1.052,9.145-1.023,11.364-5.966,2.033,3.477,2.045,4.3-1.954,6.007-5.048,2.151-10.386,3.621-15.593,5.406C827.37,607.279,825.332,610.045,824.828,620.222Z" transform="translate(32.25 98.775)"/><path class="u" d="M882.3,630.866l1.562,1.832-27.678,13.873c-.85-5.112,1.519-6.844,4.547-8.178,1.651,2.864,3.63,1.406,5.583.432Q874.3,634.838,882.3,630.866Z" transform="translate(43.172 111.399)"/><path class="i" d="M915.962,568.854l-.013-1.978q-1.175-1.1-2.353-2.188l4.391-2.308,2.127-1.294,3.35-.3q1.105-.669,2.212-1.334c3.115,1.121,1.725,2.864.439,4.3C923.423,566.751,919.754,567.961,915.962,568.854Z" transform="translate(62.189 87.816)"/><path class="v" d="M923.225,559.59q-1.105.666-2.212,1.334a5.373,5.373,0,0,0,.218-1.889l-.164.1Z" transform="translate(64.638 87.679)"/><path class="w" d="M956.353,656.8q-12.09-4.085-24.182-8.166c11.573-3.89,21.188,3.87,31.987,3.585C962.961,656.139,957.766,653.25,956.353,656.8Z" transform="translate(68.323 116.906)"/><path class="i" d="M844.432,638.63c-2.687.38-5.642-.722-8.007,1.445-6.259-3.3-13.261-1.733-19.822-2.477-15.465-1.753-31.2-2.527-46.3,3.211l-22.989,3.914c-3.049.748-1.861,4.811-4.563,5.829-5.83-1.441-9.195-5.28-10.106-11.066-.774-4.918-3.789-9.375-2.936-14.6,8.25,2.482,15.316,8.738,24.608,7.868,8.332-.778,16.7-1.417,24.968-2.635A116.557,116.557,0,0,1,844.432,638.63Z" transform="translate(1.416 109.423)"/><path class="x" d="M748.59,652.235c6.321.456,12.013-2.2,17.914-3.731,4.084-1.062,8.037-2.533,13.366-.346-7.721,4.746-15.8,6.3-23.413,8.962C755.121,653.42,749.662,656.361,748.59,652.235Z" transform="translate(7.7 116.735)"/><path class="y" d="M846.675,428.148c-4.549,3.166-6.984,9.6-14.194,8.341-2.328-2.022-5.015-2.288-7.9-1.636-9.724-1.729-18.823,2.354-29.85,4.217a105.948,105.948,0,0,1,18.158-15.524C827.094,414.074,834.131,415.005,846.675,428.148Z" transform="translate(22.936 40.854)"/><path class="y" d="M919.953,438.2c-9.1-1.4-17.812-5.108-26.964-3.352-2.328-.559-4.536-.572-6.332,1.33-7.8,2.368-10.549-4.509-15.3-7.9,11.879-13.143,19.541-14.233,33.681-4.722,4.031,2.7,7.742,5.88,11.493,8.966C917.984,433.721,919.714,434.851,919.953,438.2Z" transform="translate(48.242 40.869)"/><path class="z" d="M959.49,463.754c-5.121,4.855-10.668,9.139-13.542,15.856-2.847,1.915-1.7,6.651-5.547,7.862-.186-5.853,2.315-12.278-4.709-16.468-2.275-1.357-.16-3.964.785-5.986,5.507-11.919,15.391-14.18,27.123-12.517C969.028,458.619,962.164,461.213,959.49,463.754Z" transform="translate(69.15 52.338)"/><path class="aa" d="M788.962,488.948c-3.991-.532-4.31-4.416-6.186-6.851-1.583-2.035-2.807-4.882-5.866-4.337-3.7.665-3.671,3.937-3.725,6.891-4-3.738-2.993-8.194.585-10.482,4.4-2.833,2.567-5.015.865-7.689-4.616-7.17-9.325-14.154-19.661-12.81-1.65.213-3.525-1.184-5.294-1.836,7.835-5.72,14.646-5.64,22.042,1.543A55.279,55.279,0,0,1,788.962,488.948Z" transform="translate(8.06 50.929)"/><path class="ab" d="M966.611,453.577c-11.733-1.663-21.616.6-27.123,12.517-.944,2.022-3.06,4.629-.785,5.986,7.024,4.19,4.523,10.615,4.709,16.468-.439.851-.865,1.7-2.062,1.543-2.793-3.738,2.381-11.041-3.977-12.3-6.132-1.2-5.773,7.064-9.671,9.817a24.068,24.068,0,0,0-2.142,1.9c.9-13.475,6.531-25.008,15.338-34.879C947.642,447.059,960.332,446.913,966.611,453.577Z" transform="translate(66.14 51.261)"/><path class="ac" d="M833.4,450.532c-3.086,1.357-7.808,5.028-9.95-.279-.106-.279-.239-.559-.359-.838a37.987,37.987,0,0,0-3.445-5.747c-.053-.067-.093-.133-.146-.2a26.906,26.906,0,0,0-3.538-4.19c-2.075-1.623-4.536-4.709-3.259-6.864a2.719,2.719,0,0,1,3.126-1.1l.545.16,4.057,1.184a4.673,4.673,0,0,1,.812.319,60.608,60.608,0,0,1,5.64,3.139c.306.2.6.386.891.585s.572.386.851.585c.559.386,1.091.785,1.609,1.211a28.607,28.607,0,0,1,4.15,4.07C836.921,445.637,837.173,448.883,833.4,450.532Z" transform="translate(28.754 45.46)"/><path class="ac" d="M877.661,450.532c2.863,1.357,7.24,5.028,9.226-.279.1-.279.222-.559.332-.838a38.773,38.773,0,0,1,3.2-5.747c.049-.067.086-.133.136-.2a26.575,26.575,0,0,1,3.28-4.19c1.925-1.623,4.206-4.709,3.022-6.864a2.432,2.432,0,0,0-2.9-1.1l-.505.16-3.762,1.184a4.168,4.168,0,0,0-.753.319,55.169,55.169,0,0,0-5.229,3.139c-.283.2-.555.386-.826.585s-.531.386-.79.585c-.517.386-1.011.785-1.493,1.211a27.631,27.631,0,0,0-3.848,4.07C874.392,445.637,874.158,448.883,877.661,450.532Z" transform="translate(49.443 45.46)"/><path class="ad" d="M872.4,467.893c-8.221,2.94-16.309-.492-24.463-.665-5.268-.106-9.219-3.046-8.7-9.338,3.405,4.9,7.848,4.563,12.863,2.9,7.01-2.328,13.967-.053,20.658,1.5C878.669,463.663,875.836,466.191,872.4,467.893Z" transform="translate(37.62 54.278)"/><path class="ae" d="M873.924,467.893c-8.46,8.873-29.571,8.114-36.994-1.277-4.243-5.387-2.554-8.061,3.831-8.726-.519,6.292,3.432,9.232,8.7,9.338C857.615,467.4,865.7,470.833,873.924,467.893Z" transform="translate(36.1 54.278)"/><path class="af" d="M829.469,449.84c-10.5,9.91-17.892,9.99-27.509.319C811.232,452.115,820.37,450.878,829.469,449.84Z" transform="translate(25.324 51.62)"/><path class="ag" d="M910.978,449.965c-9.564,10.349-19.5,10.136-29.4-.865C891.8,451.268,900.948,452.04,910.978,449.965Z" transform="translate(51.617 51.375)"/><path class="ah" d="M869.813,486.06c-10.762,7.436-17.852,7.369-27.443,0Z" transform="translate(38.668 63.58)"/><path class="ai" d="M874.951,313.2a5.154,5.154,0,0,1-5.507,5.348,4.8,4.8,0,0,1-5.068-4.682c-.266-3.3,1.849-5.188,5.095-5.933C872.69,308.183,874.991,309.912,874.951,313.2Z" transform="translate(45.928 4.757)"/><path class="aj" d="M859.278,313.194c-.372,3.193-1.982,5.441-5.414,5.334a5.132,5.132,0,0,1-5.294-5.56,4.874,4.874,0,0,1,4.855-4.975C856.764,307.807,858.613,309.908,859.278,313.194Z" transform="translate(40.716 4.774)"/><path class="ak" d="M859.083,346.763c-.266,2.953-2.341,4.523-5.321,4.5s-5.095-1.57-5.161-4.589c-.08-3.339,1.929-5.281,4.948-5.72C857.26,341.509,859.375,343.3,859.083,346.763Z" transform="translate(40.725 15.661)"/><path class="al" d="M874.923,346.494c.08,2.98-2.009,4.656-5,4.762s-5.095-1.423-5.467-4.35c-.439-3.5,1.689-5.308,4.9-5.906C873.021,341.093,874.857,343.288,874.923,346.494Z" transform="translate(45.942 15.678)"/><path class="am" d="M874.829,329.836c.013,2.7-1.609,4.855-5.361,5a4.793,4.793,0,0,1-5.068-5.161c-.013-2.833,1.822-4.749,4.842-4.962C872.86,324.462,874.816,326.6,874.829,329.836Z" transform="translate(45.943 10.293)"/><path class="an" d="M859.05,329.339a4.8,4.8,0,0,1-4.257,5.467c-4.15.013-5.92-1.862-6.079-4.669-.2-3.3,1.583-5.467,5.2-5.427C856.948,324.737,858.823,326.453,859.05,329.339Z" transform="translate(40.758 10.298)"/><path class="ao" d="M843.18,312.883c-.372,3.525-2.035,5.4-4.882,5.507-3.405.133-5.228-1.929-5.268-5.321-.027-3.06,1.769-4.815,4.656-4.909C841.091,308.055,842.674,310.289,843.18,312.883Z" transform="translate(35.584 4.832)"/><path class="ap" d="M843.094,329.859c-.386,2.98-2.049,4.8-5.042,4.855-3.645.066-5.254-2.155-4.975-5.6.239-3.1,2.155-4.6,5.241-4.337C841.352,325.03,842.855,326.893,843.094,329.859Z" transform="translate(35.589 10.311)"/><path class="ap" d="M843.094,345.859c-.386,2.98-2.049,4.8-5.042,4.855-3.645.067-5.254-2.155-4.975-5.6.239-3.1,2.155-4.6,5.241-4.337C841.352,341.03,842.855,342.893,843.094,345.859Z" transform="translate(35.589 15.594)"/><path class="aq" d="M926.9,559.138a5.373,5.373,0,0,1-.218,1.889l-3.35.3-2.127,1.294-4.391,2.308a4.646,4.646,0,0,0-3.6,2.112,2.854,2.854,0,0,0-1.669.565l-6.18,2.873-1.541-1.387C910.265,562.855,916.906,557.106,926.9,559.138Z" transform="translate(58.965 87.575)"/><path class="i" d="M905.493,568.274l6.18-2.873,1.8,1.508c-2.691,2.963-6.47,4.016-9.915,5.656l-.061-2.07a3.913,3.913,0,0,1,.134-1.575Z" transform="translate(58.846 89.781)"/><path class="i" d="M903.9,569.231l.061,2.07-1.7-2.01Q903.08,569.247,903.9,569.231Z" transform="translate(58.445 91.046)"/><path class="ar" d="M905.453,567.905l-1.858.647q.159-1.018.318-2.034Z" transform="translate(58.886 90.15)"/><path class="as" d="M885.336,643.592c26.734-12.521,54.191-12.1,81.991-4.2C939.911,638.634,912.532,638.4,885.336,643.592Z" transform="translate(52.857 112.357)"/><path class="at" d="M760.191,637.97c15.1-5.739,30.833-4.964,46.3-3.211,6.561.744,13.563-.819,19.822,2.477,1.869.286,3.638.752,4.633,2.6a4.974,4.974,0,0,1-6.049,1.929c-9.632-3.558-19.808-1.629-29.687-3.1-9.361-1.394-19.242.7-28.894,1.266C764.171,639.594,761.7,640.286,760.191,637.97Z" transform="translate(11.531 112.261)"/><path class="au" d="M765.9,636.855c1.51,2.316,3.98,1.624,6.124,1.958a35.622,35.622,0,0,1-29.113,1.955Z" transform="translate(5.824 113.377)"/><path class="b" d="M844.887,611.929c6.477.809,13.3-2.172,19.488,1.806C857.533,616.858,850.834,618.452,844.887,611.929Z" transform="translate(39.5 105.04)"/><path class="i" d="M910.892,565.5a4.646,4.646,0,0,1,3.6-2.112q1.177,1.093,2.353,2.188l-3.9.056Z" transform="translate(61.296 89.116)"/><path class="i" d="M911.307,564.976l2.049.132q-.958.97-1.914,1.942l-1.8-1.508A2.853,2.853,0,0,1,911.307,564.976Z" transform="translate(60.882 89.64)"/><path class="av" d="M916.9,561.974l2.127-1.294Z" transform="translate(63.279 88.222)"/><path class="f" d="M839,455" transform="translate(37.556 53.324)"/><path class="ae" d="M841,441" transform="translate(38.216 48.7)"/></g></svg>